<?xml version="1.0" standalone="no"?>
<!DOCTYPE svg PUBLIC "-//W3C//DTD SVG 20010904//EN"
 "http://www.w3.org/TR/2001/REC-SVG-20010904/DTD/svg10.dtd">
<svg version="1.0" xmlns="http://www.w3.org/2000/svg"
 width="700.000000pt" height="700.000000pt" viewBox="0 0 700.000000 700.000000"
 preserveAspectRatio="xMidYMid meet">
<metadata>
Created by potrace 1.14, written by Peter Selinger 2001-2017
</metadata>
<g transform="translate(0.000000,700.000000) scale(0.100000,-0.100000)"
fill="#000000" stroke="none">
<path d="M0 3500 l0 -3500 3500 0 3500 0 0 3500 0 3500 -3500 0 -3500 0 0
-3500z m2984 1315 l1 -969 1200 -1 c1356 -1 1256 4 1435 -83 81 -39 109 -60
185 -136 116 -116 183 -241 211 -391 4 -22 8 -487 9 -1032 l1 -993 -985 0
-986 0 0 762 c0 683 -3 831 -19 918 -78 409 -377 741 -778 865 -85 26 -266 57
-272 46 -2 -3 -3 -585 -3 -1294 0 -708 -2 -1290 -5 -1292 -7 -7 -2029 -8
-2036 -1 -6 7 -10 4555 -4 4569 2 4 463 6 1024 5 l1021 -3 1 -970z m3053 743
c-3 -128 -9 -249 -12 -268 -55 -312 -182 -566 -390 -775 -101 -102 -175 -161
-285 -227 -203 -121 -434 -187 -675 -193 -248 -6 -455 40 -676 149 -199 98
-403 280 -536 476 -85 126 -167 317 -197 460 -9 41 -19 89 -22 105 -4 17 -9
137 -11 268 l-5 237 1407 0 1407 0 -5 -232z"/>
</g>
</svg>
