<svg width="345" height="464" viewBox="0 0 345 464" fill="none" xmlns="http://www.w3.org/2000/svg">
<path d="M38.928 2.89599H30.768L33.072 11.824L18.288 70H27.696C27.216 66.928 26.928 61.936 27.024 56.08H44.304L47.856 70H55.92L38.928 2.89599ZM27.024 54.928C27.312 45.712 28.464 34.768 30.768 25.744L33.648 14.32L43.92 54.928H27.024ZM104.529 34.768L87.057 2.89599H78.129L83.121 12.112V70H93.393C88.977 61.264 84.465 40.816 84.465 21.904V14.512L100.401 43.504L106.545 45.328L107.313 39.76C104.241 26.704 110.577 15.472 116.913 9.136V70H124.881V2.128C111.729 8.752 105.489 21.904 104.529 34.768ZM159.902 14.704L155.678 19.024V57.424C155.678 71.728 139.646 72.496 139.646 57.424V15.184H131.774V57.424C131.774 68.944 142.43 72.976 150.398 69.232L155.678 66.544L163.262 62.608L164.318 62.128V18.928L159.902 14.704ZM178.702 70.096V0.687994H170.83V70.096H178.702ZM225.531 51.952L221.115 47.632L216.795 51.952V60.304C216.795 75.664 198.363 69.712 198.363 51.664V16.432H222.363V15.184H198.363V0.687994H190.395V15.184H181.083V16.432H190.395V51.664C190.395 69.424 207.963 75.664 218.043 66.64L225.531 60.016V51.952ZM229.141 19.12V70H237.109V19.12L233.173 15.184L229.141 19.12ZM233.077 13.168C235.573 13.168 237.589 11.152 237.589 8.65599C237.589 6.16 235.573 4.144 233.077 4.144C230.677 4.144 228.661 6.16 228.661 8.65599C228.661 11.152 230.677 13.168 233.077 13.168ZM266.473 46.48V45.232H241.033V46.48H266.473ZM47.376 96.688V110.704L34.224 122.8C1.968 149.872 30.576 180.112 47.376 160.144V166H55.248V96.688H47.376ZM47.376 158.512C32.688 172.912 15.888 140.272 37.776 121.168L47.376 112.144V158.512ZM62.0228 115.12V166H69.9908V115.12L66.0548 111.184L62.0228 115.12ZM65.9588 109.168C68.4548 109.168 70.4708 107.152 70.4708 104.656C70.4708 102.16 68.4548 100.144 65.9588 100.144C63.5588 100.144 61.5428 102.16 61.5428 104.656C61.5428 107.152 63.5588 109.168 65.9588 109.168ZM101.947 129.616L106.267 125.296V118.672L93.4988 112.144C85.5308 108.304 74.9707 112.624 74.9707 121.36C74.9707 137.2 98.2988 143.152 98.2988 156.016C98.3948 167.92 83.6108 167.632 83.6108 155.728V151.888L79.2908 147.568L74.9707 151.792V158.416L87.7388 165.04C95.7068 168.784 106.267 164.56 106.267 155.824C106.267 136.432 83.3228 133.264 82.9388 120.496C83.4188 109.264 97.6268 109.744 97.6268 121.456V125.296L101.947 129.616ZM147.051 158.896C140.427 170.32 117.963 162.736 117.963 137.584C117.963 120.784 126.411 112.432 131.979 112.432C134.763 112.432 137.259 115.312 137.259 119.44L141.483 123.664L145.899 119.44V111.184H133.131C127.083 111.184 109.227 116.656 109.227 137.392C109.227 166.48 138.507 173.776 147.915 159.76L147.051 158.896ZM151.044 115.12V166H159.012V115.12L155.076 111.184L151.044 115.12ZM154.98 109.168C157.476 109.168 159.492 107.152 159.492 104.656C159.492 102.16 157.476 100.144 154.98 100.144C152.58 100.144 150.564 102.16 150.564 104.656C150.564 107.152 152.58 109.168 154.98 109.168ZM173.219 118.096V111.184H165.347V183.088L173.219 183.376V167.152L186.947 154.576C219.779 127.024 190.403 95.92 173.219 118.096ZM183.491 156.208L173.219 165.712V118.96C186.659 104.848 207.299 134.608 183.491 156.208ZM213.955 166.096V96.688H206.083V166.096H213.955ZM220.753 115.12V166H228.721V115.12L224.785 111.184L220.753 115.12ZM224.689 109.168C227.185 109.168 229.201 107.152 229.201 104.656C229.201 102.16 227.185 100.144 224.689 100.144C222.289 100.144 220.273 102.16 220.273 104.656C220.273 107.152 222.289 109.168 224.689 109.168ZM267.696 166.096C268.272 149.104 258.192 128.56 244.08 115.504L238.896 110.704L234.96 114.544V166H242.832V115.888L243.984 116.944C258.48 132.112 259.44 154.288 257.712 166L267.696 166.096ZM302.394 143.248L298.17 147.568V155.824C298.17 169.36 283.098 167.44 278.778 151.696L290.778 140.752C327.546 110.224 282.81 99.28 272.058 126.16C260.826 154.48 284.634 175.888 299.322 162.16L306.81 155.536V147.568L302.394 143.248ZM280.122 127.024C283.386 116.08 289.626 111.376 292.89 111.76C303.354 113.2 293.37 136.72 281.178 147.952L278.49 150.544C277.05 144.496 277.242 136.624 280.122 127.024ZM336.613 96.688V110.704L323.461 122.8C291.205 149.872 319.813 180.112 336.613 160.144V166H344.485V96.688H336.613ZM336.613 158.512C321.925 172.912 305.125 140.272 327.013 121.168L336.613 112.144V158.512ZM30.48 194.896H22.608V262H30.48C76.752 262 78.192 194.896 30.48 194.896ZM30.48 261.232V195.76C64.368 196.336 64.464 261.232 30.48 261.232ZM101.098 239.248L96.8738 243.568V251.824C96.8738 265.36 81.8018 263.44 77.4818 247.696L89.4818 236.752C126.25 206.224 81.5138 195.28 70.7618 222.16C59.5298 250.48 83.3378 271.888 98.0258 258.16L105.514 251.536V243.568L101.098 239.248ZM78.8258 223.024C82.0898 212.08 88.3298 207.376 91.5938 207.76C102.058 209.2 92.0738 232.72 79.8818 243.952L77.1938 246.544C75.7538 240.496 75.9458 232.624 78.8258 223.024ZM135.509 225.616L139.829 221.296V214.672L127.061 208.144C119.093 204.304 108.533 208.624 108.533 217.36C108.533 233.2 131.861 239.152 131.861 252.016C131.957 263.92 117.173 263.632 117.173 251.728V247.888L112.853 243.568L108.533 247.792V254.416L121.301 261.04C129.269 264.784 139.829 260.56 139.829 251.824C139.829 232.432 116.885 229.264 116.501 216.496C116.981 205.264 131.189 205.744 131.189 217.456V221.296L135.509 225.616ZM144.901 211.12V262H152.869V211.12L148.933 207.184L144.901 211.12ZM148.837 205.168C151.333 205.168 153.349 203.152 153.349 200.656C153.349 198.16 151.333 196.144 148.837 196.144C146.437 196.144 144.421 198.16 144.421 200.656C144.421 203.152 146.437 205.168 148.837 205.168ZM185.402 207.184V214.096C168.218 191.92 138.938 223.024 171.674 250.576L185.402 263.152V263.632C185.402 281.968 167.066 283.504 167.066 271.312V267.664L162.746 263.344L158.426 267.664V277.744L170.906 279.952C179.834 281.2 193.37 277.84 193.37 263.44V207.184H185.402ZM185.402 261.712L175.226 252.208C151.322 230.608 171.962 200.848 185.402 214.96V261.712ZM233.05 262.096C233.626 245.104 223.546 224.56 209.434 211.504L204.25 206.704L200.314 210.544V262H208.186V211.888L209.338 212.944C223.834 228.112 224.794 250.288 223.066 262L233.05 262.096ZM267.748 239.248L263.524 243.568V251.824C263.524 265.36 248.452 263.44 244.132 247.696L256.132 236.752C292.9 206.224 248.164 195.28 237.412 222.16C226.18 250.48 249.988 271.888 264.676 258.16L272.164 251.536V243.568L267.748 239.248ZM245.476 223.024C248.74 212.08 254.98 207.376 258.244 207.76C268.708 209.2 258.724 232.72 246.532 243.952L243.844 246.544C242.404 240.496 242.596 232.624 245.476 223.024ZM296.207 207.76C292.847 206.032 287.183 206.896 284.783 212.752V207.088H276.911V262H284.783V219.184C284.783 204.112 299.663 204.688 299.663 216.688V221.296L303.983 225.616L308.399 221.296V213.904L296.207 207.76ZM65.328 325.936L61.008 321.616L56.688 325.936V329.776C56.688 333.136 57.264 337.072 55.92 341.296L43.056 318.544C80.784 287.248 12.816 279.376 30.48 311.824L36.624 322.768C0.912 354.736 36.24 368.752 51.792 349.648L56.496 358H65.328L56.976 343.12L65.328 332.464V325.936ZM42.576 317.68L39.312 311.824C24.24 285.136 74.256 289.264 42.576 317.68ZM37.392 324.016L51.216 348.592C31.632 369.52 22.608 341.872 37.392 324.016ZM110.182 290.896H102.022L104.326 299.824L89.5418 358H98.9498C98.4698 354.928 98.1818 349.936 98.2778 344.08H115.558L119.11 358H127.174L110.182 290.896ZM98.2778 342.928C98.5658 333.712 99.7178 322.768 102.022 313.744L104.902 302.32L115.174 342.928H98.2778ZM149.293 303.76C145.933 302.032 140.269 302.896 137.869 308.752V303.088H129.997V358H137.869V315.184C137.869 300.112 152.749 300.688 152.749 312.688V317.296L157.069 321.616L161.486 317.296V309.904L149.293 303.76ZM204.576 339.952L200.16 335.632L195.84 339.952V348.304C195.84 363.664 177.408 357.712 177.408 339.664V304.432H201.408V303.184H177.408V288.688H169.44V303.184H160.128V304.432H169.44V339.664C169.44 357.424 187.008 363.664 197.088 354.64L204.576 348.016V339.952ZM30.48 386.896H22.608V454H30.48C76.752 454 78.192 386.896 30.48 386.896ZM30.48 453.232V387.76C64.368 388.336 64.464 453.232 30.48 453.232ZM69.8978 403.12V454H77.8658V403.12L73.9298 399.184L69.8978 403.12ZM73.8338 397.168C76.3298 397.168 78.3458 395.152 78.3458 392.656C78.3458 390.16 76.3298 388.144 73.8338 388.144C71.4338 388.144 69.4178 390.16 69.4178 392.656C69.4178 395.152 71.4338 397.168 73.8338 397.168ZM103.401 399.76C100.041 398.032 94.377 398.896 91.977 404.752V399.088H84.105V454H91.977V411.184C91.977 396.112 106.857 396.688 106.857 408.688V413.296L111.177 417.616L115.593 413.296V405.904L103.401 399.76ZM149.851 431.248L145.627 435.568V443.824C145.627 457.36 130.555 455.44 126.235 439.696L138.235 428.752C175.004 398.224 130.267 387.28 119.515 414.16C108.283 442.48 132.091 463.888 146.779 450.16L154.267 443.536V435.568L149.851 431.248ZM127.579 415.024C130.843 404.08 137.083 399.376 140.347 399.76C150.811 401.2 140.827 424.72 128.635 435.952L125.947 438.544C124.507 432.496 124.699 424.624 127.579 415.024ZM194.631 446.896C188.007 458.32 165.543 450.736 165.543 425.584C165.543 408.784 173.991 400.432 179.559 400.432C182.343 400.432 184.839 403.312 184.839 407.44L189.063 411.664L193.479 407.44V399.184H180.711C174.663 399.184 156.807 404.656 156.807 425.392C156.807 454.48 186.087 461.776 195.495 447.76L194.631 446.896ZM238.656 435.952L234.24 431.632L229.92 435.952V444.304C229.92 459.664 211.488 453.712 211.488 435.664V400.432H235.488V399.184H211.488V384.688H203.52V399.184H194.208V400.432H203.52V435.664C203.52 453.424 221.088 459.664 231.168 450.64L238.656 444.016V435.952ZM262.33 399.184C250.138 399.184 240.25 411.664 240.25 426.928C240.25 442.288 250.138 454.672 262.33 454.672C274.522 454.672 284.41 442.288 284.41 426.928C284.41 411.664 274.522 399.184 262.33 399.184ZM262.33 453.616C254.17 453.616 249.562 441.712 249.562 427.024C249.562 412.336 254.17 400.432 262.33 400.432C270.49 400.432 274.618 412.336 274.618 427.024C274.618 441.712 270.49 453.616 262.33 453.616ZM308.395 399.76C305.035 398.032 299.371 398.896 296.971 404.752V399.088H289.099V454H296.971V411.184C296.971 396.112 311.851 396.688 311.851 408.688V413.296L316.171 417.616L320.587 413.296V405.904L308.395 399.76Z" fill="#AEB0AF"/>
</svg>
