<svg width="1198" height="567" viewBox="0 0 1198 567" fill="none" xmlns="http://www.w3.org/2000/svg">
<path d="M43.6 6.19999H26.6L31.4 24.8L0.6 146H20.2C19.2 139.6 18.6 129.2 18.8 117H54.8L62.2 146H79L43.6 6.19999ZM18.8 114.6C19.4 95.4 21.8 72.6 26.6 53.8L32.6 30L54 114.6H18.8ZM180.269 72.6L143.869 6.19999H125.269L135.669 25.4V146H157.069C147.869 127.8 138.469 85.2 138.469 45.8V30.4L171.669 90.8L184.469 94.6L186.069 83C179.669 55.8 192.869 32.4 206.069 19.2V146H222.669V4.6C195.269 18.4 182.269 45.8 180.269 72.6ZM295.63 30.8L286.83 39.8V119.8C286.83 149.6 253.43 151.2 253.43 119.8V31.8H237.03V119.8C237.03 143.8 259.23 152.2 275.83 144.4L286.83 138.8L302.63 130.6L304.83 129.6V39.6L295.63 30.8ZM334.795 146.2V1.59999H318.395V146.2H334.795ZM432.356 108.4L423.156 99.4L414.156 108.4V125.8C414.156 157.8 375.756 145.4 375.756 107.8V34.4H425.756V31.8H375.756V1.59999H359.156V31.8H339.756V34.4H359.156V107.8C359.156 144.8 395.756 157.8 416.756 139L432.356 125.2V108.4ZM439.878 40V146H456.478V40L448.278 31.8L439.878 40ZM448.078 27.6C453.278 27.6 457.478 23.4 457.478 18.2C457.478 13 453.278 8.79999 448.078 8.79999C443.078 8.79999 438.878 13 438.878 18.2C438.878 23.4 443.078 27.6 448.078 27.6ZM517.653 97V94.4H464.653V97H517.653ZM578.223 1.59999V30.8L550.823 56C483.623 112.4 543.223 175.4 578.223 133.8V146H594.623V1.59999H578.223ZM578.223 130.4C547.623 160.4 512.623 92.4 558.223 52.6L578.223 33.8V130.4ZM608.738 40V146H625.338V40L617.138 31.8L608.738 40ZM616.938 27.6C622.138 27.6 626.337 23.4 626.337 18.2C626.337 13 622.138 8.79999 616.938 8.79999C611.938 8.79999 607.738 13 607.738 18.2C607.738 23.4 611.938 27.6 616.938 27.6ZM691.913 70.2L700.913 61.2V47.4L674.313 33.8C657.713 25.8 635.713 34.8 635.713 53C635.713 86 684.313 98.4 684.313 125.2C684.513 150 653.713 149.4 653.713 124.6V116.6L644.713 107.6L635.713 116.4V130.2L662.313 144C678.913 151.8 700.913 143 700.913 124.8C700.913 84.4 653.113 77.8 652.313 51.2C653.313 27.8 682.913 28.8 682.913 53.2V61.2L691.913 70.2ZM785.88 131.2C772.08 155 725.28 139.2 725.28 86.8C725.28 51.8 742.88 34.4 754.48 34.4C760.28 34.4 765.48 40.4 765.48 49L774.28 57.8L783.48 49V31.8H756.88C744.28 31.8 707.08 43.2 707.08 86.4C707.08 147 768.08 162.2 787.68 133L785.88 131.2ZM794.198 40V146H810.798V40L802.598 31.8L794.198 40ZM802.398 27.6C807.598 27.6 811.798 23.4 811.798 18.2C811.798 13 807.598 8.79999 802.398 8.79999C797.398 8.79999 793.198 13 793.198 18.2C793.198 23.4 797.398 27.6 802.398 27.6ZM840.397 46.2V31.8H823.997V181.6L840.397 182.2V148.4L868.997 122.2C937.397 64.8 876.197 -3.8147e-06 840.397 46.2ZM861.797 125.6L840.397 145.4V48C868.397 18.6 911.397 80.6 861.797 125.6ZM925.264 146.2V1.59999H908.864V146.2H925.264ZM939.425 40V146H956.025V40L947.825 31.8L939.425 40ZM947.625 27.6C952.825 27.6 957.025 23.4 957.025 18.2C957.025 13 952.825 8.79999 947.625 8.79999C942.625 8.79999 938.425 13 938.425 18.2C938.425 23.4 942.625 27.6 947.625 27.6ZM1037.22 146.2C1038.42 110.8 1017.42 68 988.023 40.8L977.223 30.8L969.023 38.8V146H985.423V41.6L987.823 43.8C1018.02 75.4 1020.02 121.6 1016.42 146L1037.22 146.2ZM1109.51 98.6L1100.71 107.6V124.8C1100.71 153 1069.31 149 1060.31 116.2L1085.31 93.4C1161.91 29.8 1068.71 6.99999 1046.31 63C1022.91 122 1072.51 166.6 1103.11 138L1118.71 124.2V107.6L1109.51 98.6ZM1063.11 64.8C1069.91 42 1082.91 32.2 1089.71 33C1111.51 36 1090.71 85 1065.31 108.4L1059.71 113.8C1056.71 101.2 1057.11 84.8 1063.11 64.8ZM1180.8 1.59999V30.8L1153.4 56C1086.2 112.4 1145.8 175.4 1180.8 133.8V146H1197.2V1.59999H1180.8ZM1180.8 130.4C1150.2 160.4 1115.2 92.4 1160.8 52.6L1180.8 33.8V130.4ZM26 206.2H9.6V346H26C122.4 346 125.4 206.2 26 206.2ZM26 344.4V208C96.6 209.2 96.8 344.4 26 344.4ZM173.12 298.6L164.32 307.6V324.8C164.32 353 132.92 349 123.92 316.2L148.92 293.4C225.52 229.8 132.32 207 109.92 263C86.5203 322 136.12 366.6 166.72 338L182.32 324.2V307.6L173.12 298.6ZM126.72 264.8C133.52 242 146.52 232.2 153.32 233C175.12 236 154.32 285 128.92 308.4L123.32 313.8C120.32 301.2 120.72 284.8 126.72 264.8ZM244.811 270.2L253.811 261.2V247.4L227.211 233.8C210.611 225.8 188.611 234.8 188.611 253C188.611 286 237.211 298.4 237.211 325.2C237.411 350 206.611 349.4 206.611 324.6V316.6L197.611 307.6L188.611 316.4V330.2L215.211 344C231.811 351.8 253.811 343 253.811 324.8C253.811 284.4 206.011 277.8 205.211 251.2C206.211 227.8 235.811 228.8 235.811 253.2V261.2L244.811 270.2ZM264.378 240V346H280.978V240L272.778 231.8L264.378 240ZM272.578 227.6C277.778 227.6 281.978 223.4 281.978 218.2C281.978 213 277.778 208.8 272.578 208.8C267.578 208.8 263.378 213 263.378 218.2C263.378 223.4 267.578 227.6 272.578 227.6ZM348.753 231.8V246.2C312.953 200 251.953 264.8 320.153 322.2L348.753 348.4V349.4C348.753 387.6 310.553 390.8 310.553 365.4V357.8L301.553 348.8L292.553 357.8V378.8L318.553 383.4C337.153 386 365.353 379 365.353 349V231.8H348.753ZM348.753 345.4L327.553 325.6C277.753 280.6 320.753 218.6 348.753 248V345.4ZM448.02 346.2C449.22 310.8 428.22 268 398.82 240.8L388.02 230.8L379.82 238.8V346H396.22V241.6L398.62 243.8C428.82 275.4 430.82 321.6 427.22 346L448.02 346.2ZM520.308 298.6L511.508 307.6V324.8C511.508 353 480.108 349 471.108 316.2L496.108 293.4C572.708 229.8 479.508 207 457.108 263C433.708 322 483.308 366.6 513.908 338L529.508 324.2V307.6L520.308 298.6ZM473.908 264.8C480.708 242 493.708 232.2 500.508 233C522.308 236 501.508 285 476.108 308.4L470.508 313.8C467.508 301.2 467.908 284.8 473.908 264.8ZM579.598 233C572.598 229.4 560.798 231.2 555.798 243.4V231.6H539.398V346H555.798V256.8C555.798 225.4 586.798 226.6 586.798 251.6V261.2L595.798 270.2L604.998 261.2V245.8L579.598 233ZM747.756 279.2L738.756 270.2L729.756 279.2V287.2C729.756 294.2 730.956 302.4 728.156 311.2L701.356 263.8C779.956 198.6 638.356 182.2 675.156 249.8L687.956 272.6C613.556 339.2 687.156 368.4 719.556 328.6L729.356 346H747.756L730.356 315L747.756 292.8V279.2ZM700.356 262L693.556 249.8C662.156 194.2 766.356 202.8 700.356 262ZM689.556 275.2L718.356 326.4C677.556 370 658.756 312.4 689.556 275.2ZM43.6 406.2H26.6L31.4 424.8L0.6 546H20.2C19.2 539.6 18.6 529.2 18.8 517H54.8L62.2 546H79L43.6 406.2ZM18.8 514.6C19.4 495.4 21.8 472.6 26.6 453.8L32.6 430L54 514.6H18.8ZM125.083 433C118.083 429.4 106.283 431.2 101.283 443.4V431.6H84.8828V546H101.283V456.8C101.283 425.4 132.283 426.6 132.283 451.6V461.2L141.283 470.2L150.483 461.2V445.8L125.083 433ZM240.255 508.4L231.055 499.4L222.055 508.4V525.8C222.055 557.8 183.655 545.4 183.655 507.8V434.4H233.655V431.8H183.655V401.6H167.055V431.8H147.655V434.4H167.055V507.8C167.055 544.8 203.655 557.8 224.655 539L240.255 525.2V508.4ZM311.563 406.2H295.163V546H311.563C407.963 546 410.963 406.2 311.563 406.2ZM311.563 544.4V408C382.163 409.2 382.363 544.4 311.563 544.4ZM393.683 440V546H410.283V440L402.083 431.8L393.683 440ZM401.883 427.6C407.083 427.6 411.283 423.4 411.283 418.2C411.283 413 407.083 408.8 401.883 408.8C396.883 408.8 392.683 413 392.683 418.2C392.683 423.4 396.883 427.6 401.883 427.6ZM463.481 433C456.481 429.4 444.681 431.2 439.681 443.4V431.6H423.281V546H439.681V456.8C439.681 425.4 470.681 426.6 470.681 451.6V461.2L479.681 470.2L488.881 461.2V445.8L463.481 433ZM560.253 498.6L551.453 507.6V524.8C551.453 553 520.053 549 511.053 516.2L536.053 493.4C612.653 429.8 519.453 407 497.053 463C473.653 522 523.253 566.6 553.853 538L569.453 524.2V507.6L560.253 498.6ZM513.853 464.8C520.653 442 533.653 432.2 540.453 433C562.253 436 541.453 485 516.053 508.4L510.453 513.8C507.453 501.2 507.853 484.8 513.853 464.8ZM653.544 531.2C639.744 555 592.944 539.2 592.944 486.8C592.944 451.8 610.544 434.4 622.144 434.4C627.944 434.4 633.144 440.4 633.144 449L641.944 457.8L651.144 449V431.8H624.544C611.944 431.8 574.744 443.2 574.744 486.4C574.744 547 635.744 562.2 655.344 533L653.544 531.2ZM745.263 508.4L736.063 499.4L727.063 508.4V525.8C727.063 557.8 688.663 545.4 688.663 507.8V434.4H738.663V431.8H688.663V401.6H672.063V431.8H652.662V434.4H672.063V507.8C672.063 544.8 708.663 557.8 729.663 539L745.263 525.2V508.4ZM794.584 431.8C769.184 431.8 748.584 457.8 748.584 489.6C748.584 521.6 769.184 547.4 794.584 547.4C819.984 547.4 840.584 521.6 840.584 489.6C840.584 457.8 819.984 431.8 794.584 431.8ZM794.584 545.2C777.584 545.2 767.984 520.4 767.984 489.8C767.984 459.2 777.584 434.4 794.584 434.4C811.584 434.4 820.184 459.2 820.184 489.8C820.184 520.4 811.584 545.2 794.584 545.2ZM890.552 433C883.552 429.4 871.752 431.2 866.752 443.4V431.6H850.352V546H866.752V456.8C866.752 425.4 897.752 426.6 897.752 451.6V461.2L906.752 470.2L915.952 461.2V445.8L890.552 433Z" fill="#AEB0AF"/>
</svg>
