<svg width="1200" height="549" viewBox="0 0 1200 549" fill="none" xmlns="http://www.w3.org/2000/svg">
<path d="M44.6 6.19999H27.6L32.4 24.8L1.6 146H21.2C20.2 139.6 19.6 129.2 19.8 117H55.8L63.2 146H80L44.6 6.19999ZM19.8 114.6C20.4 95.4 22.8 72.6 27.6 53.8L33.6 30L55 114.6H19.8ZM181.269 72.6L144.869 6.19999H126.269L136.669 25.4V146H158.069C148.869 127.8 139.469 85.2 139.469 45.8V30.4L172.669 90.8L185.469 94.6L187.069 83C180.669 55.8 193.869 32.4 207.069 19.2V146H223.669V4.6C196.269 18.4 183.269 45.8 181.269 72.6ZM296.63 30.8L287.83 39.8V119.8C287.83 149.6 254.43 151.2 254.43 119.8V31.8H238.03V119.8C238.03 143.8 260.23 152.2 276.83 144.4L287.83 138.8L303.63 130.6L305.83 129.6V39.6L296.63 30.8ZM335.795 146.2V1.59999H319.395V146.2H335.795ZM433.356 108.4L424.156 99.4L415.156 108.4V125.8C415.156 157.8 376.756 145.4 376.756 107.8V34.4H426.756V31.8H376.756V1.59999H360.156V31.8H340.756V34.4H360.156V107.8C360.156 144.8 396.756 157.8 417.756 139L433.356 125.2V108.4ZM440.878 40V146H457.478V40L449.278 31.8L440.878 40ZM449.078 27.6C454.278 27.6 458.478 23.4 458.478 18.2C458.478 13 454.278 8.79999 449.078 8.79999C444.078 8.79999 439.878 13 439.878 18.2C439.878 23.4 444.078 27.6 449.078 27.6ZM518.653 97V94.4H465.653V97H518.653ZM579.223 1.59999V30.8L551.823 56C484.623 112.4 544.223 175.4 579.223 133.8V146H595.623V1.59999H579.223ZM579.223 130.4C548.623 160.4 513.623 92.4 559.223 52.6L579.223 33.8V130.4ZM609.738 40V146H626.338V40L618.138 31.8L609.738 40ZM617.938 27.6C623.138 27.6 627.337 23.4 627.337 18.2C627.337 13 623.138 8.79999 617.938 8.79999C612.938 8.79999 608.738 13 608.738 18.2C608.738 23.4 612.938 27.6 617.938 27.6ZM692.913 70.2L701.913 61.2V47.4L675.313 33.8C658.713 25.8 636.713 34.8 636.713 53C636.713 86 685.313 98.4 685.313 125.2C685.513 150 654.713 149.4 654.713 124.6V116.6L645.713 107.6L636.713 116.4V130.2L663.313 144C679.913 151.8 701.913 143 701.913 124.8C701.913 84.4 654.113 77.8 653.313 51.2C654.313 27.8 683.913 28.8 683.913 53.2V61.2L692.913 70.2ZM786.88 131.2C773.08 155 726.28 139.2 726.28 86.8C726.28 51.8 743.88 34.4 755.48 34.4C761.28 34.4 766.48 40.4 766.48 49L775.28 57.8L784.48 49V31.8H757.88C745.28 31.8 708.08 43.2 708.08 86.4C708.08 147 769.08 162.2 788.68 133L786.88 131.2ZM795.198 40V146H811.798V40L803.598 31.8L795.198 40ZM803.398 27.6C808.598 27.6 812.798 23.4 812.798 18.2C812.798 13 808.598 8.79999 803.398 8.79999C798.398 8.79999 794.198 13 794.198 18.2C794.198 23.4 798.398 27.6 803.398 27.6ZM841.397 46.2V31.8H824.997V181.6L841.397 182.2V148.4L869.997 122.2C938.397 64.8 877.197 -3.8147e-06 841.397 46.2ZM862.797 125.6L841.397 145.4V48C869.397 18.6 912.397 80.6 862.797 125.6ZM926.264 146.2V1.59999H909.864V146.2H926.264ZM940.425 40V146H957.025V40L948.825 31.8L940.425 40ZM948.625 27.6C953.825 27.6 958.025 23.4 958.025 18.2C958.025 13 953.825 8.79999 948.625 8.79999C943.625 8.79999 939.425 13 939.425 18.2C939.425 23.4 943.625 27.6 948.625 27.6ZM1038.22 146.2C1039.42 110.8 1018.42 68 989.023 40.8L978.223 30.8L970.023 38.8V146H986.423V41.6L988.823 43.8C1019.02 75.4 1021.02 121.6 1017.42 146L1038.22 146.2ZM1110.51 98.6L1101.71 107.6V124.8C1101.71 153 1070.31 149 1061.31 116.2L1086.31 93.4C1162.91 29.8 1069.71 6.99999 1047.31 63C1023.91 122 1073.51 166.6 1104.11 138L1119.71 124.2V107.6L1110.51 98.6ZM1064.11 64.8C1070.91 42 1083.91 32.2 1090.71 33C1112.51 36 1091.71 85 1066.31 108.4L1060.71 113.8C1057.71 101.2 1058.11 84.8 1064.11 64.8ZM1181.8 1.59999V30.8L1154.4 56C1087.2 112.4 1146.8 175.4 1181.8 133.8V146H1198.2V1.59999H1181.8ZM1181.8 130.4C1151.2 160.4 1116.2 92.4 1161.8 52.6L1181.8 33.8V130.4ZM27 206.2H10.6V346H27C123.4 346 126.4 206.2 27 206.2ZM27 344.4V208C97.6 209.2 97.8 344.4 27 344.4ZM174.12 298.6L165.32 307.6V324.8C165.32 353 133.92 349 124.92 316.2L149.92 293.4C226.52 229.8 133.32 207 110.92 263C87.5203 322 137.12 366.6 167.72 338L183.32 324.2V307.6L174.12 298.6ZM127.72 264.8C134.52 242 147.52 232.2 154.32 233C176.12 236 155.32 285 129.92 308.4L124.32 313.8C121.32 301.2 121.72 284.8 127.72 264.8ZM245.811 270.2L254.811 261.2V247.4L228.211 233.8C211.611 225.8 189.611 234.8 189.611 253C189.611 286 238.211 298.4 238.211 325.2C238.411 350 207.611 349.4 207.611 324.6V316.6L198.611 307.6L189.611 316.4V330.2L216.211 344C232.811 351.8 254.811 343 254.811 324.8C254.811 284.4 207.011 277.8 206.211 251.2C207.211 227.8 236.811 228.8 236.811 253.2V261.2L245.811 270.2ZM265.378 240V346H281.978V240L273.778 231.8L265.378 240ZM273.578 227.6C278.778 227.6 282.978 223.4 282.978 218.2C282.978 213 278.778 208.8 273.578 208.8C268.578 208.8 264.378 213 264.378 218.2C264.378 223.4 268.578 227.6 273.578 227.6ZM349.753 231.8V246.2C313.953 200 252.953 264.8 321.153 322.2L349.753 348.4V349.4C349.753 387.6 311.553 390.8 311.553 365.4V357.8L302.553 348.8L293.553 357.8V378.8L319.553 383.4C338.153 386 366.353 379 366.353 349V231.8H349.753ZM349.753 345.4L328.553 325.6C278.753 280.6 321.753 218.6 349.753 248V345.4ZM449.02 346.2C450.22 310.8 429.22 268 399.82 240.8L389.02 230.8L380.82 238.8V346H397.22V241.6L399.62 243.8C429.82 275.4 431.82 321.6 428.22 346L449.02 346.2ZM521.308 298.6L512.508 307.6V324.8C512.508 353 481.108 349 472.108 316.2L497.108 293.4C573.708 229.8 480.508 207 458.108 263C434.708 322 484.308 366.6 514.908 338L530.508 324.2V307.6L521.308 298.6ZM474.908 264.8C481.708 242 494.708 232.2 501.508 233C523.308 236 502.508 285 477.108 308.4L471.508 313.8C468.508 301.2 468.908 284.8 474.908 264.8ZM580.598 233C573.598 229.4 561.798 231.2 556.798 243.4V231.6H540.398V346H556.798V256.8C556.798 225.4 587.798 226.6 587.798 251.6V261.2L596.798 270.2L605.998 261.2V245.8L580.598 233ZM748.756 279.2L739.756 270.2L730.756 279.2V287.2C730.756 294.2 731.956 302.4 729.156 311.2L702.356 263.8C780.956 198.6 639.356 182.2 676.156 249.8L688.956 272.6C614.556 339.2 688.156 368.4 720.556 328.6L730.356 346H748.756L731.356 315L748.756 292.8V279.2ZM701.356 262L694.556 249.8C663.156 194.2 767.356 202.8 701.356 262ZM690.556 275.2L719.356 326.4C678.556 370 659.756 312.4 690.556 275.2ZM44.6 406.2H27.6L32.4 424.8L1.6 546H21.2C20.2 539.6 19.6 529.2 19.8 517H55.8L63.2 546H80L44.6 406.2ZM19.8 514.6C20.4 495.4 22.8 472.6 27.6 453.8L33.6 430L55 514.6H19.8ZM126.083 433C119.083 429.4 107.283 431.2 102.283 443.4V431.6H85.8828V546H102.283V456.8C102.283 425.4 133.283 426.6 133.283 451.6V461.2L142.283 470.2L151.483 461.2V445.8L126.083 433ZM241.255 508.4L232.055 499.4L223.055 508.4V525.8C223.055 557.8 184.655 545.4 184.655 507.8V434.4H234.655V431.8H184.655V401.6H168.055V431.8H148.655V434.4H168.055V507.8C168.055 544.8 204.655 557.8 225.655 539L241.255 525.2V508.4ZM312.563 406.2H296.163V546H312.563C408.963 546 411.963 406.2 312.563 406.2ZM312.563 544.4V408C383.163 409.2 383.363 544.4 312.563 544.4ZM394.683 440V546H411.283V440L403.083 431.8L394.683 440ZM402.883 427.6C408.083 427.6 412.283 423.4 412.283 418.2C412.283 413 408.083 408.8 402.883 408.8C397.883 408.8 393.683 413 393.683 418.2C393.683 423.4 397.883 427.6 402.883 427.6ZM464.481 433C457.481 429.4 445.681 431.2 440.681 443.4V431.6H424.281V546H440.681V456.8C440.681 425.4 471.681 426.6 471.681 451.6V461.2L480.681 470.2L489.881 461.2V445.8L464.481 433ZM561.253 498.6L552.453 507.6V524.8C552.453 553 521.053 549 512.053 516.2L537.053 493.4C613.653 429.8 520.453 407 498.053 463C474.653 522 524.253 566.6 554.853 538L570.453 524.2V507.6L561.253 498.6ZM514.853 464.8C521.653 442 534.653 432.2 541.453 433C563.253 436 542.453 485 517.053 508.4L511.453 513.8C508.453 501.2 508.853 484.8 514.853 464.8ZM654.544 531.2C640.744 555 593.944 539.2 593.944 486.8C593.944 451.8 611.544 434.4 623.144 434.4C628.944 434.4 634.144 440.4 634.144 449L642.944 457.8L652.144 449V431.8H625.544C612.944 431.8 575.744 443.2 575.744 486.4C575.744 547 636.744 562.2 656.344 533L654.544 531.2ZM746.263 508.4L737.063 499.4L728.063 508.4V525.8C728.063 557.8 689.663 545.4 689.663 507.8V434.4H739.663V431.8H689.663V401.6H673.063V431.8H653.662V434.4H673.063V507.8C673.063 544.8 709.663 557.8 730.663 539L746.263 525.2V508.4ZM795.584 431.8C770.184 431.8 749.584 457.8 749.584 489.6C749.584 521.6 770.184 547.4 795.584 547.4C820.984 547.4 841.584 521.6 841.584 489.6C841.584 457.8 820.984 431.8 795.584 431.8ZM795.584 545.2C778.584 545.2 768.984 520.4 768.984 489.8C768.984 459.2 778.584 434.4 795.584 434.4C812.584 434.4 821.184 459.2 821.184 489.8C821.184 520.4 812.584 545.2 795.584 545.2ZM891.552 433C884.552 429.4 872.752 431.2 867.752 443.4V431.6H851.352V546H867.752V456.8C867.752 425.4 898.752 426.6 898.752 451.6V461.2L907.752 470.2L916.952 461.2V445.8L891.552 433Z" fill="black" fill-opacity="0.7"/>
<path d="M44.6 6.19999L45.5694 5.95452L45.3783 5.19999H44.6V6.19999ZM27.6 6.19999V5.19999H26.3092L26.6317 6.44987L27.6 6.19999ZM32.4 24.8L33.3692 25.0463L33.4323 24.7981L33.3683 24.5501L32.4 24.8ZM1.6 146L0.630806 145.754L0.31409 147H1.6V146ZM21.2 146V147H22.3684L22.188 145.846L21.2 146ZM19.8 117V116H18.8163L18.8001 116.984L19.8 117ZM55.8 117L56.769 116.753L56.5769 116H55.8V117ZM63.2 146L62.2311 146.247L62.4231 147H63.2V146ZM80 146V147H81.2848L80.9694 145.755L80 146ZM19.8 114.6L18.8005 114.569L18.7683 115.6H19.8V114.6ZM27.6 53.8L28.5689 54.0474L28.5697 54.0444L27.6 53.8ZM33.6 30L34.5695 29.7548L32.6303 29.7555L33.6 30ZM55 114.6V115.6H56.2845L55.9695 114.355L55 114.6ZM44.6 5.19999H27.6V7.19999H44.6V5.19999ZM26.6317 6.44987L31.4317 25.0499L33.3683 24.5501L28.5683 5.95011L26.6317 6.44987ZM31.4308 24.5537L0.630806 145.754L2.56919 146.246L33.3692 25.0463L31.4308 24.5537ZM1.6 147H21.2V145H1.6V147ZM22.188 145.846C21.2003 139.524 20.6004 129.187 20.7999 117.016L18.8001 116.984C18.5996 129.213 19.1997 139.676 20.212 146.154L22.188 145.846ZM19.8 118H55.8V116H19.8V118ZM54.8311 117.247L62.2311 146.247L64.169 145.753L56.769 116.753L54.8311 117.247ZM63.2 147H80V145H63.2V147ZM80.9694 145.755L45.5694 5.95452L43.6306 6.44546L79.0306 146.245L80.9694 145.755ZM20.7995 114.631C21.3981 95.4762 23.7928 72.7539 28.5689 54.0474L26.6311 53.5526C21.8072 72.4461 19.4019 95.3238 18.8005 114.569L20.7995 114.631ZM28.5697 54.0444L34.5697 30.2444L32.6303 29.7555L26.6303 53.5555L28.5697 54.0444ZM32.6305 30.2452L54.0305 114.845L55.9695 114.355L34.5695 29.7548L32.6305 30.2452ZM55 113.6H19.8V115.6H55V113.6ZM181.269 72.6L180.392 73.0807L182.015 76.0411L182.266 72.6744L181.269 72.6ZM144.869 6.19999L145.746 5.71929L145.461 5.19999H144.869V6.19999ZM126.269 6.19999V5.19999H124.59L125.389 6.67627L126.269 6.19999ZM136.669 25.4H137.669V25.1466L137.548 24.9237L136.669 25.4ZM136.669 146H135.669V147H136.669V146ZM158.069 146V147H159.695L158.961 145.549L158.069 146ZM139.469 30.4L140.345 29.9183L138.469 30.4H139.469ZM172.669 90.8L171.792 91.2817L171.99 91.6417L172.384 91.7586L172.669 90.8ZM185.469 94.6L185.184 95.5586L186.3 95.89L186.459 94.7366L185.469 94.6ZM187.069 83L188.059 83.1366L188.085 82.9522L188.042 82.771L187.069 83ZM207.069 19.2H208.069V16.7858L206.362 18.4929L207.069 19.2ZM207.069 146H206.069V147H207.069V146ZM223.669 146V147H224.669V146H223.669ZM223.669 4.6H224.669V2.97668L223.219 3.70688L223.669 4.6ZM182.146 72.1193L145.746 5.71929L143.992 6.68069L180.392 73.0807L182.146 72.1193ZM144.869 5.19999H126.269V7.19999H144.869V5.19999ZM125.389 6.67627L135.789 25.8763L137.548 24.9237L127.148 5.7237L125.389 6.67627ZM135.669 25.4V146H137.669V25.4H135.669ZM136.669 147H158.069V145H136.669V147ZM158.961 145.549C154.422 136.568 149.793 121.472 146.3 103.658C142.811 85.8611 140.469 65.4261 140.469 45.8H138.469C138.469 65.5739 140.827 86.1388 144.337 104.042C147.844 121.928 152.516 137.232 157.176 146.451L158.961 145.549ZM140.469 45.8V30.4H138.469V45.8H140.469ZM138.592 30.8817L171.792 91.2817L173.545 90.3183L140.345 29.9183L138.592 30.8817ZM172.384 91.7586L185.184 95.5586L185.753 93.6413L172.953 89.8413L172.384 91.7586ZM186.459 94.7366L188.059 83.1366L186.078 82.8634L184.478 94.4634L186.459 94.7366ZM188.042 82.771C181.749 56.0266 194.72 32.9629 207.776 19.9071L206.362 18.4929C193.017 31.8371 179.588 55.5734 186.095 83.229L188.042 82.771ZM206.069 19.2V146H208.069V19.2H206.069ZM207.069 147H223.669V145H207.069V147ZM224.669 146V4.6H222.669V146H224.669ZM223.219 3.70688C195.424 17.7059 182.29 45.4775 180.272 72.5256L182.266 72.6744C184.247 46.1225 197.114 19.0941 224.119 5.49312L223.219 3.70688ZM296.63 30.8L297.321 30.0774L296.606 29.3937L295.915 30.1009L296.63 30.8ZM287.83 39.8L287.115 39.1009L286.83 39.3923V39.8H287.83ZM254.43 31.8H255.43V30.8H254.43V31.8ZM238.03 31.8V30.8H237.03V31.8H238.03ZM276.83 144.4L277.255 145.305L277.269 145.298L277.283 145.291L276.83 144.4ZM287.83 138.8L288.283 139.691L288.29 139.688L287.83 138.8ZM303.63 130.6L303.216 129.69L303.192 129.7L303.169 129.712L303.63 130.6ZM305.83 129.6L306.243 130.51L306.83 130.244V129.6H305.83ZM305.83 39.6H306.83V39.1727L306.521 38.8774L305.83 39.6ZM295.915 30.1009L287.115 39.1009L288.545 40.4991L297.345 31.4991L295.915 30.1009ZM286.83 39.8V119.8H288.83V39.8H286.83ZM286.83 119.8C286.83 134.334 278.752 141.567 271.106 141.75C267.251 141.843 263.365 140.175 260.42 136.602C257.47 133.022 255.43 127.477 255.43 119.8H253.43C253.43 127.823 255.564 133.853 258.877 137.873C262.195 141.9 266.659 143.857 271.154 143.75C280.207 143.533 288.83 135.066 288.83 119.8H286.83ZM255.43 119.8V31.8H253.43V119.8H255.43ZM254.43 30.8H238.03V32.8H254.43V30.8ZM237.03 31.8V119.8H239.03V31.8H237.03ZM237.03 119.8C237.03 132.148 242.764 140.596 250.729 144.905C258.651 149.19 268.686 149.331 277.255 145.305L276.404 143.495C268.373 147.269 259.009 147.11 251.681 143.145C244.395 139.204 239.03 131.452 239.03 119.8H237.03ZM277.283 145.291L288.283 139.691L287.376 137.909L276.376 143.509L277.283 145.291ZM288.29 139.688L304.09 131.488L303.169 129.712L287.369 137.912L288.29 139.688ZM304.043 131.51L306.243 130.51L305.416 128.69L303.216 129.69L304.043 131.51ZM306.83 129.6V39.6H304.83V129.6H306.83ZM306.521 38.8774L297.321 30.0774L295.938 31.5226L305.138 40.3226L306.521 38.8774ZM335.795 146.2V147.2H336.795V146.2H335.795ZM335.795 1.59999H336.795V0.599987H335.795V1.59999ZM319.395 1.59999V0.599987H318.395V1.59999H319.395ZM319.395 146.2H318.395V147.2H319.395V146.2ZM336.795 146.2V1.59999H334.795V146.2H336.795ZM335.795 0.599987H319.395V2.59999H335.795V0.599987ZM318.395 1.59999V146.2H320.395V1.59999H318.395ZM319.395 147.2H335.795V145.2H319.395V147.2ZM433.356 108.4H434.356V107.979L434.056 107.685L433.356 108.4ZM424.156 99.4L424.856 98.6852L424.149 97.9935L423.449 98.6929L424.156 99.4ZM415.156 108.4L414.449 107.693L414.156 107.986V108.4H415.156ZM376.756 34.4V33.4H375.756V34.4H376.756ZM426.756 34.4V35.4H427.756V34.4H426.756ZM426.756 31.8H427.756V30.8H426.756V31.8ZM376.756 31.8H375.756V32.8H376.756V31.8ZM376.756 1.59999H377.756V0.599987H376.756V1.59999ZM360.156 1.59999V0.599987H359.156V1.59999H360.156ZM360.156 31.8V32.8H361.156V31.8H360.156ZM340.756 31.8V30.8H339.756V31.8H340.756ZM340.756 34.4H339.756V35.4H340.756V34.4ZM360.156 34.4H361.156V33.4H360.156V34.4ZM417.756 139L417.094 138.251L417.089 138.255L417.756 139ZM433.356 125.2L434.019 125.949L434.356 125.65V125.2H433.356ZM434.056 107.685L424.856 98.6852L423.457 100.115L432.657 109.115L434.056 107.685ZM423.449 98.6929L414.449 107.693L415.863 109.107L424.863 100.107L423.449 98.6929ZM414.156 108.4V125.8H416.156V108.4H414.156ZM414.156 125.8C414.156 133.62 411.813 138.487 408.549 140.98C405.297 143.464 400.888 143.777 396.324 141.97C387.182 138.351 377.756 126.278 377.756 107.8H375.756C375.756 126.922 385.531 139.849 395.588 143.83C400.624 145.823 405.815 145.586 409.763 142.57C413.7 139.563 416.156 133.98 416.156 125.8H414.156ZM377.756 107.8V34.4H375.756V107.8H377.756ZM376.756 35.4H426.756V33.4H376.756V35.4ZM427.756 34.4V31.8H425.756V34.4H427.756ZM426.756 30.8H376.756V32.8H426.756V30.8ZM377.756 31.8V1.59999H375.756V31.8H377.756ZM376.756 0.599987H360.156V2.59999H376.756V0.599987ZM359.156 1.59999V31.8H361.156V1.59999H359.156ZM360.156 30.8H340.756V32.8H360.156V30.8ZM339.756 31.8V34.4H341.756V31.8H339.756ZM340.756 35.4H360.156V33.4H340.756V35.4ZM359.156 34.4V107.8H361.156V34.4H359.156ZM359.156 107.8C359.156 126.663 368.508 139.53 380.656 145.23C392.774 150.916 407.608 149.427 418.423 139.745L417.089 138.255C406.904 147.373 392.938 148.784 381.506 143.42C370.104 138.07 361.156 125.937 361.156 107.8H359.156ZM418.419 139.749L434.019 125.949L432.694 124.451L417.094 138.251L418.419 139.749ZM434.356 125.2V108.4H432.356V125.2H434.356ZM440.878 40L440.18 39.2844L439.878 39.5787V40H440.878ZM440.878 146H439.878V147H440.878V146ZM457.478 146V147H458.478V146H457.478ZM457.478 40H458.478V39.5858L458.185 39.2929L457.478 40ZM449.278 31.8L449.985 31.0929L449.287 30.3942L448.58 31.0844L449.278 31.8ZM439.878 40V146H441.878V40H439.878ZM440.878 147H457.478V145H440.878V147ZM458.478 146V40H456.478V146H458.478ZM458.185 39.2929L449.985 31.0929L448.571 32.5071L456.771 40.7071L458.185 39.2929ZM448.58 31.0844L440.18 39.2844L441.577 40.7156L449.977 32.5156L448.58 31.0844ZM449.078 28.6C454.83 28.6 459.478 23.9523 459.478 18.2H457.478C457.478 22.8477 453.726 26.6 449.078 26.6V28.6ZM459.478 18.2C459.478 12.4477 454.83 7.79999 449.078 7.79999V9.79999C453.726 9.79999 457.478 13.5523 457.478 18.2H459.478ZM449.078 7.79999C443.512 7.79999 438.878 12.4617 438.878 18.2H440.878C440.878 13.5383 444.644 9.79999 449.078 9.79999V7.79999ZM438.878 18.2C438.878 23.9383 443.512 28.6 449.078 28.6V26.6C444.644 26.6 440.878 22.8617 440.878 18.2H438.878ZM518.653 97V98H519.653V97H518.653ZM518.653 94.4H519.653V93.4H518.653V94.4ZM465.653 94.4V93.4H464.653V94.4H465.653ZM465.653 97H464.653V98H465.653V97ZM519.653 97V94.4H517.653V97H519.653ZM518.653 93.4H465.653V95.4H518.653V93.4ZM464.653 94.4V97H466.653V94.4H464.653ZM465.653 98H518.653V96H465.653V98ZM579.223 1.59999V0.599987H578.223V1.59999H579.223ZM579.223 30.8L579.9 31.536L580.223 31.2389V30.8H579.223ZM551.823 56L552.466 56.766L552.484 56.7514L552.5 56.736L551.823 56ZM579.223 133.8H580.223V131.058L578.458 133.156L579.223 133.8ZM579.223 146H578.223V147H579.223V146ZM595.623 146V147H596.623V146H595.623ZM595.623 1.59999H596.623V0.599987H595.623V1.59999ZM579.223 130.4L579.924 131.114L580.223 130.82V130.4H579.223ZM559.223 52.6L559.881 53.3534L559.895 53.3413L559.908 53.3286L559.223 52.6ZM579.223 33.8H580.223V31.4875L578.539 33.0714L579.223 33.8ZM578.223 1.59999V30.8H580.223V1.59999H578.223ZM578.547 30.064L551.146 55.264L552.5 56.736L579.9 31.536L578.547 30.064ZM551.181 55.234C517.323 83.6501 515.135 114.03 526.348 132.176C531.929 141.208 540.822 147.148 550.628 148.12C560.461 149.095 571.057 145.06 579.989 134.444L578.458 133.156C569.89 143.34 559.911 147.03 550.825 146.13C541.712 145.227 533.343 139.692 528.049 131.124C517.511 114.07 519.124 84.7499 552.466 56.766L551.181 55.234ZM578.223 133.8V146H580.223V133.8H578.223ZM579.223 147H595.623V145H579.223V147ZM596.623 146V1.59999H594.623V146H596.623ZM595.623 0.599987H579.223V2.59999H595.623V0.599987ZM578.523 129.686C571.104 136.96 563.589 138.173 557.151 135.57C550.623 132.93 544.961 126.273 541.584 117.322C534.845 99.4576 537.419 72.9582 559.881 53.3534L558.566 51.8466C535.428 72.0418 532.702 99.4424 539.713 118.028C543.211 127.302 549.187 134.507 556.402 137.424C563.707 140.377 572.043 138.84 579.924 131.114L578.523 129.686ZM559.908 53.3286L579.908 34.5286L578.539 33.0714L558.539 51.8714L559.908 53.3286ZM578.223 33.8V130.4H580.223V33.8H578.223ZM609.737 40L609.039 39.2844L608.737 39.5787V40H609.737ZM609.737 146H608.737V147H609.737V146ZM626.338 146V147H627.338V146H626.338ZM626.338 40H627.338V39.5858L627.045 39.2929L626.338 40ZM618.138 31.8L618.845 31.0929L618.146 30.3942L617.439 31.0844L618.138 31.8ZM608.737 40V146H610.737V40H608.737ZM609.737 147H626.338V145H609.737V147ZM627.338 146V40H625.338V146H627.338ZM627.045 39.2929L618.845 31.0929L617.43 32.5071L625.63 40.7071L627.045 39.2929ZM617.439 31.0844L609.039 39.2844L610.436 40.7156L618.836 32.5156L617.439 31.0844ZM617.938 28.6C623.69 28.6 628.338 23.9523 628.338 18.2H626.338C626.338 22.8477 622.585 26.6 617.938 26.6V28.6ZM628.338 18.2C628.338 12.4477 623.69 7.79999 617.938 7.79999V9.79999C622.585 9.79999 626.338 13.5523 626.338 18.2H628.338ZM617.938 7.79999C612.371 7.79999 607.737 12.4617 607.737 18.2H609.737C609.737 13.5383 613.504 9.79999 617.938 9.79999V7.79999ZM607.737 18.2C607.737 23.9383 612.371 28.6 617.938 28.6V26.6C613.504 26.6 609.737 22.8617 609.737 18.2H607.737ZM692.912 70.2L692.205 70.9071L692.912 71.6142L693.62 70.9071L692.912 70.2ZM701.912 61.2L702.62 61.9071L702.912 61.6142V61.2H701.912ZM701.912 47.4H702.912V46.7882L702.368 46.5096L701.912 47.4ZM675.312 33.8L675.768 32.9096L675.757 32.9043L675.747 32.8991L675.312 33.8ZM685.312 125.2H684.312L684.313 125.208L685.312 125.2ZM654.713 116.6H655.713V116.186L655.42 115.893L654.713 116.6ZM645.713 107.6L646.42 106.893L645.72 106.194L645.013 106.885L645.713 107.6ZM636.713 116.4L636.013 115.685L635.713 115.979V116.4H636.713ZM636.713 130.2H635.713V130.808L636.252 131.088L636.713 130.2ZM663.312 144L662.852 144.888L662.869 144.897L662.887 144.905L663.312 144ZM653.312 51.2L652.313 51.1573L652.312 51.1937L652.313 51.2301L653.312 51.2ZM683.912 61.2H682.912V61.6142L683.205 61.9071L683.912 61.2ZM693.62 70.9071L702.62 61.9071L701.205 60.4929L692.205 69.4929L693.62 70.9071ZM702.912 61.2V47.4H700.912V61.2H702.912ZM702.368 46.5096L675.768 32.9096L674.857 34.6904L701.457 48.2904L702.368 46.5096ZM675.747 32.8991C667.167 28.7642 657.202 29.0216 649.366 32.6684C641.51 36.3238 635.713 43.4371 635.713 53H637.713C637.713 44.3629 642.915 37.8762 650.209 34.4816C657.523 31.0784 666.858 30.8357 674.878 34.7008L675.747 32.8991ZM635.713 53C635.713 70.02 648.263 81.6541 660.356 92.1793C666.461 97.4933 672.459 102.524 676.952 107.895C681.43 113.249 684.312 118.827 684.312 125.2H686.312C686.312 118.173 683.12 112.151 678.486 106.612C673.866 101.088 667.714 95.9317 661.669 90.6707C649.462 80.0459 637.713 68.98 637.713 53H635.713ZM684.313 125.208C684.361 131.196 682.541 135.546 679.887 138.372C677.229 141.201 673.673 142.57 670.107 142.5C663.041 142.362 655.713 136.522 655.713 124.6H653.713C653.713 137.478 661.784 144.338 670.068 144.5C674.177 144.58 678.284 142.999 681.344 139.741C684.409 136.479 686.364 131.604 686.312 125.192L684.313 125.208ZM655.713 124.6V116.6H653.713V124.6H655.713ZM655.42 115.893L646.42 106.893L645.005 108.307L654.005 117.307L655.42 115.893ZM645.013 106.885L636.013 115.685L637.412 117.115L646.412 108.315L645.013 106.885ZM635.713 116.4V130.2H637.713V116.4H635.713ZM636.252 131.088L662.852 144.888L663.773 143.112L637.173 129.312L636.252 131.088ZM662.887 144.905C671.463 148.934 681.422 148.678 689.257 145.058C697.112 141.428 702.912 134.365 702.912 124.8H700.912C700.912 133.435 695.713 139.872 688.418 143.242C681.103 146.622 671.762 146.866 663.738 143.095L662.887 144.905ZM702.912 124.8C702.912 104.117 690.632 92.1064 678.552 82.0563C672.473 76.9984 666.513 72.4891 661.979 67.5634C657.474 62.6681 654.502 57.488 654.312 51.1699L652.313 51.2301C652.523 58.212 655.826 63.8318 660.508 68.9179C665.161 73.9734 671.302 78.6266 677.273 83.5937C689.293 93.5936 700.912 105.083 700.912 124.8H702.912ZM654.312 51.2427C654.552 45.6093 656.506 41.5404 659.21 38.9287C661.92 36.3121 665.441 35.0995 668.938 35.2738C675.864 35.6189 682.912 41.4635 682.912 53.2H684.912C684.912 40.5365 677.161 33.6811 669.037 33.2762C665.009 33.0755 660.943 34.4753 657.821 37.49C654.694 40.5096 652.573 45.0907 652.313 51.1573L654.312 51.2427ZM682.912 53.2V61.2H684.912V53.2H682.912ZM683.205 61.9071L692.205 70.9071L693.62 69.4929L684.62 60.4929L683.205 61.9071ZM786.88 131.2L787.587 130.493L786.667 129.573L786.015 130.698L786.88 131.2ZM766.48 49H765.48V49.4142L765.773 49.7071L766.48 49ZM775.28 57.8L774.573 58.5071L775.264 59.1987L775.971 58.5226L775.28 57.8ZM784.48 49L785.171 49.7226L785.48 49.4273V49H784.48ZM784.48 31.8H785.48V30.8H784.48V31.8ZM788.68 133L789.51 133.557L789.968 132.874L789.387 132.293L788.68 133ZM786.015 130.698C779.481 141.967 765.019 144.06 751.894 136.703C738.827 129.378 727.28 112.69 727.28 86.8H725.28C725.28 113.31 737.133 130.721 750.916 138.447C764.64 146.14 780.479 144.233 787.745 131.702L786.015 130.698ZM727.28 86.8C727.28 69.4653 731.638 56.5667 737.36 48.0319C743.112 39.4528 750.145 35.4 755.48 35.4V33.4C749.215 33.4 741.647 38.0472 735.699 46.9181C729.722 55.8333 725.28 69.1347 725.28 86.8H727.28ZM755.48 35.4C760.517 35.4 765.48 40.7151 765.48 49H767.48C767.48 40.0849 762.042 33.4 755.48 33.4V35.4ZM765.773 49.7071L774.573 58.5071L775.987 57.0929L767.187 48.2929L765.773 49.7071ZM775.971 58.5226L785.171 49.7226L783.788 48.2774L774.588 57.0774L775.971 58.5226ZM785.48 49V31.8H783.48V49H785.48ZM784.48 30.8H757.88V32.8H784.48V30.8ZM757.88 30.8C751.368 30.8 738.704 33.7177 727.65 42.1033C716.544 50.5284 707.08 64.4648 707.08 86.4H709.08C709.08 65.1352 718.215 51.7716 728.859 43.6967C739.555 35.5823 751.792 32.8 757.88 32.8V30.8ZM707.08 86.4C707.08 117.075 722.545 136.399 740.63 144.292C758.636 152.15 779.365 148.671 789.51 133.557L787.849 132.443C778.394 146.529 758.824 150.05 741.43 142.458C724.114 134.901 709.08 116.325 709.08 86.4H707.08ZM789.387 132.293L787.587 130.493L786.173 131.907L787.973 133.707L789.387 132.293ZM795.198 40L794.5 39.2844L794.198 39.5787V40H795.198ZM795.198 146H794.198V147H795.198V146ZM811.798 146V147H812.798V146H811.798ZM811.798 40H812.798V39.5858L812.506 39.2929L811.798 40ZM803.598 31.8L804.306 31.0929L803.607 30.3942L802.9 31.0844L803.598 31.8ZM794.198 40V146H796.198V40H794.198ZM795.198 147H811.798V145H795.198V147ZM812.798 146V40H810.798V146H812.798ZM812.506 39.2929L804.306 31.0929L802.891 32.5071L811.091 40.7071L812.506 39.2929ZM802.9 31.0844L794.5 39.2844L795.897 40.7156L804.297 32.5156L802.9 31.0844ZM803.398 28.6C809.151 28.6 813.798 23.9523 813.798 18.2H811.798C811.798 22.8477 808.046 26.6 803.398 26.6V28.6ZM813.798 18.2C813.798 12.4477 809.151 7.79999 803.398 7.79999V9.79999C808.046 9.79999 811.798 13.5523 811.798 18.2H813.798ZM803.398 7.79999C797.832 7.79999 793.198 12.4617 793.198 18.2H795.198C795.198 13.5383 798.965 9.79999 803.398 9.79999V7.79999ZM793.198 18.2C793.198 23.9383 797.832 28.6 803.398 28.6V26.6C798.965 26.6 795.198 22.8617 795.198 18.2H793.198ZM841.397 46.2H840.397V49.1231L842.187 46.8125L841.397 46.2ZM841.397 31.8H842.397V30.8H841.397V31.8ZM824.997 31.8V30.8H823.997V31.8H824.997ZM824.997 181.6H823.997V182.564L824.96 182.599L824.997 181.6ZM841.397 182.2L841.36 183.199L842.397 183.237V182.2H841.397ZM841.397 148.4L840.721 147.663L840.397 147.96V148.4H841.397ZM869.997 122.2L869.354 121.434L869.337 121.448L869.321 121.463L869.997 122.2ZM862.797 125.6L862.125 124.859L862.118 124.866L862.797 125.6ZM841.397 145.4H840.397V147.688L842.076 146.134L841.397 145.4ZM841.397 48L840.673 47.3103L840.397 47.6V48H841.397ZM842.397 46.2V31.8H840.397V46.2H842.397ZM841.397 30.8H824.997V32.8H841.397V30.8ZM823.997 31.8V181.6H825.997V31.8H823.997ZM824.96 182.599L841.36 183.199L841.433 181.201L825.033 180.601L824.96 182.599ZM842.397 182.2V148.4H840.397V182.2H842.397ZM842.072 149.137L870.672 122.937L869.321 121.463L840.721 147.663L842.072 149.137ZM870.64 122.966C905.096 94.0512 907.191 62.9632 895.615 44.8123C889.85 35.7739 880.703 30.0065 870.636 29.5137C860.548 29.0198 849.717 33.8301 840.606 45.5875L842.187 46.8125C850.977 35.4698 861.221 31.0552 870.539 31.5113C879.879 31.9685 888.468 37.3261 893.929 45.8877C904.802 62.9368 903.298 92.9488 869.354 121.434L870.64 122.966ZM862.118 124.866L840.718 144.666L842.076 146.134L863.476 126.334L862.118 124.866ZM842.397 145.4V48H840.397V145.4H842.397ZM842.121 48.6897C848.879 41.5936 856.421 40.0944 863.214 42.3431C870.078 44.6151 876.346 50.7728 880.289 59.3189C888.149 76.3567 886.614 102.641 862.125 124.859L863.469 126.341C888.579 103.559 890.345 76.3433 882.105 58.4811C877.997 49.5772 871.366 42.9349 863.842 40.4444C856.248 37.9306 847.915 39.7064 840.673 47.3103L842.121 48.6897ZM926.264 146.2V147.2H927.264V146.2H926.264ZM926.264 1.59999H927.264V0.599987H926.264V1.59999ZM909.864 1.59999V0.599987H908.864V1.59999H909.864ZM909.864 146.2H908.864V147.2H909.864V146.2ZM927.264 146.2V1.59999H925.264V146.2H927.264ZM926.264 0.599987H909.864V2.59999H926.264V0.599987ZM908.864 1.59999V146.2H910.864V1.59999H908.864ZM909.864 147.2H926.264V145.2H909.864V147.2ZM940.425 40L939.726 39.2844L939.425 39.5787V40H940.425ZM940.425 146H939.425V147H940.425V146ZM957.025 146V147H958.025V146H957.025ZM957.025 40H958.025V39.5858L957.732 39.2929L957.025 40ZM948.825 31.8L949.532 31.0929L948.833 30.3942L948.126 31.0844L948.825 31.8ZM939.425 40V146H941.425V40H939.425ZM940.425 147H957.025V145H940.425V147ZM958.025 146V40H956.025V146H958.025ZM957.732 39.2929L949.532 31.0929L948.118 32.5071L956.318 40.7071L957.732 39.2929ZM948.126 31.0844L939.726 39.2844L941.124 40.7156L949.524 32.5156L948.126 31.0844ZM948.625 28.6C954.377 28.6 959.025 23.9523 959.025 18.2H957.025C957.025 22.8477 953.273 26.6 948.625 26.6V28.6ZM959.025 18.2C959.025 12.4477 954.377 7.79999 948.625 7.79999V9.79999C953.273 9.79999 957.025 13.5523 957.025 18.2H959.025ZM948.625 7.79999C943.059 7.79999 938.425 12.4617 938.425 18.2H940.425C940.425 13.5383 944.191 9.79999 948.625 9.79999V7.79999ZM938.425 18.2C938.425 23.9383 943.059 28.6 948.625 28.6V26.6C944.191 26.6 940.425 22.8617 940.425 18.2H938.425ZM1038.22 146.2L1038.21 147.2L1039.19 147.209L1039.22 146.234L1038.22 146.2ZM989.023 40.8L988.344 41.5338L988.344 41.534L989.023 40.8ZM978.223 30.8L978.903 30.0662L978.205 29.4205L977.525 30.0842L978.223 30.8ZM970.023 38.8L969.325 38.0842L969.023 38.3785V38.8H970.023ZM970.023 146H969.023V147H970.023V146ZM986.423 146V147H987.423V146H986.423ZM986.423 41.6L987.099 40.8628L985.423 39.3268V41.6H986.423ZM988.823 43.8L989.546 43.1091L989.524 43.0852L989.499 43.0628L988.823 43.8ZM1017.42 146L1016.43 145.854L1016.27 146.989L1017.41 147L1017.42 146ZM1039.22 146.234C1040.43 110.478 1019.26 67.4139 989.703 40.066L988.344 41.534C1017.58 68.5861 1038.41 111.122 1037.22 146.166L1039.22 146.234ZM989.703 40.0662L978.903 30.0662L977.544 31.5338L988.344 41.5338L989.703 40.0662ZM977.525 30.0842L969.325 38.0842L970.722 39.5158L978.922 31.5158L977.525 30.0842ZM969.023 38.8V146H971.023V38.8H969.023ZM970.023 147H986.423V145H970.023V147ZM987.423 146V41.6H985.423V146H987.423ZM985.748 42.3372L988.148 44.5371L989.499 43.0628L987.099 40.8628L985.748 42.3372ZM988.101 44.4909C1017.99 75.7678 1020.01 121.589 1016.43 145.854L1018.41 146.146C1022.03 121.611 1020.06 75.0322 989.546 43.1091L988.101 44.4909ZM1017.41 147L1038.21 147.2L1038.23 145.2L1017.43 145L1017.41 147ZM1110.51 98.6L1111.21 97.8852L1110.5 97.1857L1109.8 97.9009L1110.51 98.6ZM1101.71 107.6L1101 106.901L1100.71 107.192V107.6H1101.71ZM1061.31 116.2L1060.64 115.461L1060.18 115.874L1060.35 116.465L1061.31 116.2ZM1086.31 93.4L1085.67 92.6306L1085.65 92.6455L1085.64 92.6611L1086.31 93.4ZM1047.31 63L1046.38 62.6286L1046.38 62.6313L1047.31 63ZM1104.11 138L1103.45 137.251L1103.44 137.26L1103.43 137.269L1104.11 138ZM1119.71 124.2L1120.37 124.949L1120.71 124.65V124.2H1119.71ZM1119.71 107.6H1120.71V107.179L1120.41 106.885L1119.71 107.6ZM1064.11 64.8L1065.07 65.0873L1065.07 65.0858L1064.11 64.8ZM1090.71 33L1090.85 32.0093L1090.84 32.008L1090.83 32.0069L1090.71 33ZM1066.31 108.4L1065.63 107.665L1065.62 107.672L1065.62 107.68L1066.31 108.4ZM1060.71 113.8L1059.74 114.032L1060.14 115.736L1061.41 114.52L1060.71 113.8ZM1109.8 97.9009L1101 106.901L1102.43 108.299L1111.23 99.2991L1109.8 97.9009ZM1100.71 107.6V124.8H1102.71V107.6H1100.71ZM1100.71 124.8C1100.71 131.676 1098.8 136.423 1095.96 139.258C1093.13 142.076 1089.27 143.129 1085.06 142.39C1076.59 140.904 1066.71 132.101 1062.28 115.935L1060.35 116.465C1064.91 133.099 1075.23 142.696 1084.71 144.36C1089.48 145.196 1094.03 144.012 1097.37 140.673C1100.7 137.352 1102.71 132.024 1102.71 124.8H1100.71ZM1061.98 116.939L1086.98 94.1389L1085.64 92.6611L1060.64 115.461L1061.98 116.939ZM1086.95 94.1694C1106.16 78.2208 1114.93 64.6736 1116.67 54.1066C1117.55 48.7942 1116.65 44.2291 1114.39 40.5446C1112.14 36.8698 1108.6 34.1485 1104.31 32.4223C1087.25 25.5562 1057.78 34.1394 1046.38 62.6286L1048.24 63.3714C1059.24 35.8606 1087.57 27.8438 1103.56 34.2777C1107.54 35.8765 1110.71 38.3489 1112.69 41.5882C1114.66 44.8178 1115.5 48.8871 1114.7 53.7809C1113.07 63.6264 1104.76 76.7792 1085.67 92.6306L1086.95 94.1694ZM1046.38 62.6313C1034.56 92.4482 1041.14 118.756 1054.71 134.015C1061.5 141.638 1070.04 146.519 1078.91 147.636C1087.8 148.755 1096.93 146.077 1104.79 138.731L1103.43 137.269C1095.99 144.223 1087.44 146.695 1079.16 145.652C1070.85 144.606 1062.73 140.012 1056.21 132.685C1043.18 118.044 1036.67 92.5518 1048.24 63.3687L1046.38 62.6313ZM1104.77 138.749L1120.37 124.949L1119.05 123.451L1103.45 137.251L1104.77 138.749ZM1120.71 124.2V107.6H1118.71V124.2H1120.71ZM1120.41 106.885L1111.21 97.8852L1109.81 99.3148L1119.01 108.315L1120.41 106.885ZM1065.07 65.0858C1068.43 53.8112 1073.31 45.8073 1078.14 40.7395C1080.55 38.2046 1082.93 36.4175 1085.1 35.316C1087.27 34.2087 1089.15 33.8237 1090.59 33.9932L1090.83 32.0069C1088.87 31.7763 1086.58 32.3163 1084.19 33.534C1081.79 34.7575 1079.22 36.6954 1076.69 39.3605C1071.61 44.6927 1066.59 52.9888 1063.15 64.5142L1065.07 65.0858ZM1090.57 33.9907C1093.09 34.3373 1094.92 35.3323 1096.21 36.801C1097.51 38.2838 1098.33 40.3304 1098.68 42.8886C1099.36 48.0328 1098.08 54.9891 1095.27 62.7085C1089.67 78.1196 1078.21 96.081 1065.63 107.665L1066.99 109.135C1079.81 97.319 1091.45 79.0804 1097.15 63.3915C1100 55.5609 1101.41 48.2422 1100.66 42.6239C1100.28 39.8009 1099.35 37.3443 1097.71 35.4818C1096.07 33.6052 1093.78 32.4127 1090.85 32.0093L1090.57 33.9907ZM1065.62 107.68L1060.02 113.08L1061.41 114.52L1067.01 109.12L1065.62 107.68ZM1061.68 113.568C1058.73 101.177 1059.11 84.9594 1065.07 65.0873L1063.15 64.5126C1057.11 84.6406 1056.69 101.223 1059.74 114.032L1061.68 113.568ZM1181.8 1.59999V0.599987H1180.8V1.59999H1181.8ZM1181.8 30.8L1182.48 31.536L1182.8 31.2389V30.8H1181.8ZM1154.4 56L1155.04 56.766L1155.06 56.7514L1155.08 56.736L1154.4 56ZM1181.8 133.8H1182.8V131.058L1181.04 133.156L1181.8 133.8ZM1181.8 146H1180.8V147H1181.8V146ZM1198.2 146V147H1199.2V146H1198.2ZM1198.2 1.59999H1199.2V0.599987H1198.2V1.59999ZM1181.8 130.4L1182.5 131.114L1182.8 130.82V130.4H1181.8ZM1161.8 52.6L1162.46 53.3534L1162.47 53.3413L1162.49 53.3286L1161.8 52.6ZM1181.8 33.8H1182.8V31.4875L1181.12 33.0714L1181.8 33.8ZM1180.8 1.59999V30.8H1182.8V1.59999H1180.8ZM1181.12 30.064L1153.72 55.264L1155.08 56.736L1182.48 31.536L1181.12 30.064ZM1153.76 55.234C1119.9 83.6501 1117.71 114.03 1128.93 132.176C1134.51 141.208 1143.4 147.148 1153.21 148.12C1163.04 149.095 1173.64 145.06 1182.57 134.444L1181.04 133.156C1172.47 143.34 1162.49 147.03 1153.4 146.13C1144.29 145.227 1135.92 139.692 1130.63 131.124C1120.09 114.07 1121.7 84.7499 1155.04 56.766L1153.76 55.234ZM1180.8 133.8V146H1182.8V133.8H1180.8ZM1181.8 147H1198.2V145H1181.8V147ZM1199.2 146V1.59999H1197.2V146H1199.2ZM1198.2 0.599987H1181.8V2.59999H1198.2V0.599987ZM1181.1 129.686C1173.68 136.96 1166.17 138.173 1159.73 135.57C1153.2 132.93 1147.54 126.273 1144.16 117.322C1137.42 99.4576 1140 72.9582 1162.46 53.3534L1161.14 51.8466C1138.01 72.0418 1135.28 99.4424 1142.29 118.028C1145.79 127.302 1151.76 134.507 1158.98 137.424C1166.29 140.377 1174.62 138.84 1182.5 131.114L1181.1 129.686ZM1162.49 53.3286L1182.49 34.5286L1181.12 33.0714L1161.12 51.8714L1162.49 53.3286ZM1180.8 33.8V130.4H1182.8V33.8H1180.8ZM10.6 206.2V205.2H9.6V206.2H10.6ZM10.6 346H9.6V347H10.6V346ZM27 344.4H26V345.4H27V344.4ZM27 208L27.017 207L26 206.983V208H27ZM27 205.2H10.6V207.2H27V205.2ZM9.6 206.2V346H11.6V206.2H9.6ZM10.6 347H27V345H10.6V347ZM27 347C51.3592 347 69.8916 338.16 82.3765 324.84C94.8477 311.535 101.235 293.812 101.425 276.111C101.615 258.409 95.6072 240.677 83.2229 227.363C70.825 214.034 52.1001 205.2 27 205.2V207.2C51.5999 207.2 69.775 215.841 81.7584 228.725C93.7553 241.623 99.6101 258.841 99.4251 276.089C99.24 293.338 93.0148 310.565 80.9173 323.472C68.8334 336.365 50.8408 345 27 345V347ZM28 344.4V208H26V344.4H28ZM26.983 209C44.2667 209.294 57.2335 217.77 65.9169 230.386C74.6195 243.029 79.0126 259.832 79.025 276.651C79.0374 293.47 74.6687 310.195 65.9761 322.685C57.3045 335.145 44.3326 343.4 27 343.4V345.4C45.0674 345.4 58.6205 336.755 67.6177 323.827C76.5938 310.93 81.0376 293.78 81.025 276.649C81.0124 259.518 76.543 242.296 67.5644 229.252C58.5665 216.18 45.0333 207.306 27.017 207L26.983 209ZM174.12 298.6L174.82 297.885L174.105 297.186L173.405 297.901L174.12 298.6ZM165.32 307.6L164.605 306.901L164.32 307.192V307.6H165.32ZM124.92 316.2L124.246 315.461L123.794 315.874L123.956 316.465L124.92 316.2ZM149.92 293.4L149.282 292.631L149.264 292.645L149.246 292.661L149.92 293.4ZM110.92 263L109.992 262.629L109.991 262.631L110.92 263ZM167.72 338L167.058 337.251L167.047 337.26L167.037 337.269L167.72 338ZM183.32 324.2L183.983 324.949L184.32 324.651V324.2H183.32ZM183.32 307.6H184.32V307.179L184.02 306.885L183.32 307.6ZM127.72 264.8L128.678 265.087L128.679 265.086L127.72 264.8ZM154.32 233L154.457 232.009L154.447 232.008L154.437 232.007L154.32 233ZM129.92 308.4L129.243 307.665L129.234 307.672L129.226 307.68L129.92 308.4ZM124.32 313.8L123.348 314.032L123.753 315.736L125.014 314.52L124.32 313.8ZM173.405 297.901L164.605 306.901L166.035 308.299L174.835 299.299L173.405 297.901ZM164.32 307.6V324.8H166.32V307.6H164.32ZM164.32 324.8C164.32 331.676 162.407 336.423 159.567 339.258C156.743 342.076 152.879 343.129 148.668 342.39C140.198 340.904 130.32 332.101 125.885 315.935L123.956 316.465C128.52 333.099 138.843 342.696 148.322 344.36C153.086 345.196 157.635 344.012 160.98 340.673C164.308 337.352 166.32 332.024 166.32 324.8H164.32ZM125.594 316.939L150.594 294.139L149.246 292.661L124.246 315.461L125.594 316.939ZM150.559 294.169C169.768 278.221 178.535 264.674 180.279 254.107C181.156 248.794 180.255 244.229 178.002 240.545C175.754 236.87 172.208 234.149 167.919 232.422C150.857 225.556 121.388 234.139 109.992 262.629L111.849 263.371C122.853 235.861 151.184 227.844 167.172 234.278C171.145 235.876 174.314 238.349 176.296 241.588C178.271 244.818 179.113 248.887 178.306 253.781C176.681 263.626 168.373 276.779 149.282 292.631L150.559 294.169ZM109.991 262.631C98.1651 292.448 104.748 318.756 118.323 334.015C125.105 341.638 133.652 346.519 142.52 347.636C151.412 348.755 160.543 346.077 168.403 338.731L167.037 337.269C159.598 344.223 151.054 346.695 142.77 345.652C134.463 344.606 126.336 340.012 119.817 332.685C106.792 318.044 100.276 292.552 111.85 263.369L109.991 262.631ZM168.383 338.749L183.983 324.949L182.658 323.451L167.058 337.251L168.383 338.749ZM184.32 324.2V307.6H182.32V324.2H184.32ZM184.02 306.885L174.82 297.885L173.421 299.315L182.621 308.315L184.02 306.885ZM128.679 265.086C132.041 253.811 136.92 245.807 141.745 240.739C144.158 238.205 146.544 236.417 148.706 235.316C150.878 234.209 152.764 233.824 154.203 233.993L154.437 232.007C152.477 231.776 150.187 232.316 147.798 233.534C145.397 234.757 142.833 236.695 140.296 239.361C135.22 244.693 130.199 252.989 126.762 264.514L128.679 265.086ZM154.184 233.991C156.703 234.337 158.532 235.332 159.821 236.801C161.122 238.284 161.944 240.33 162.285 242.889C162.972 248.033 161.685 254.989 158.88 262.708C153.281 278.12 141.816 296.081 129.243 307.665L130.598 309.135C143.424 297.319 155.06 279.08 160.76 263.392C163.605 255.561 165.018 248.242 164.268 242.624C163.891 239.801 162.959 237.344 161.324 235.482C159.677 233.605 157.387 232.413 154.457 232.009L154.184 233.991ZM129.226 307.68L123.626 313.08L125.014 314.52L130.614 309.12L129.226 307.68ZM125.293 313.568C122.343 301.177 122.717 284.959 128.678 265.087L126.762 264.513C120.724 284.641 120.298 301.223 123.348 314.032L125.293 313.568ZM245.811 270.2L245.104 270.907L245.811 271.614L246.518 270.907L245.811 270.2ZM254.811 261.2L255.518 261.907L255.811 261.614V261.2H254.811ZM254.811 247.4H255.811V246.788L255.266 246.51L254.811 247.4ZM228.211 233.8L228.666 232.91L228.656 232.904L228.645 232.899L228.211 233.8ZM238.211 325.2H237.211L237.211 325.208L238.211 325.2ZM207.611 316.6H208.611V316.186L208.318 315.893L207.611 316.6ZM198.611 307.6L199.318 306.893L198.619 306.194L197.912 306.885L198.611 307.6ZM189.611 316.4L188.912 315.685L188.611 315.979V316.4H189.611ZM189.611 330.2H188.611V330.808L189.15 331.088L189.611 330.2ZM216.211 344L215.75 344.888L215.768 344.897L215.786 344.905L216.211 344ZM206.211 251.2L205.212 251.157L205.21 251.194L205.211 251.23L206.211 251.2ZM236.811 261.2H235.811V261.614L236.104 261.907L236.811 261.2ZM246.518 270.907L255.518 261.907L254.104 260.493L245.104 269.493L246.518 270.907ZM255.811 261.2V247.4H253.811V261.2H255.811ZM255.266 246.51L228.666 232.91L227.756 234.69L254.356 248.29L255.266 246.51ZM228.645 232.899C220.065 228.764 210.101 229.022 202.264 232.668C194.409 236.324 188.611 243.437 188.611 253H190.611C190.611 244.363 195.813 237.876 203.108 234.482C210.421 231.078 219.757 230.836 227.777 234.701L228.645 232.899ZM188.611 253C188.611 270.02 201.162 281.654 213.254 292.179C219.36 297.493 225.358 302.524 229.85 307.895C234.329 313.249 237.211 318.827 237.211 325.2H239.211C239.211 318.173 236.018 312.151 231.384 306.612C226.764 301.088 220.612 295.932 214.567 290.671C202.36 280.046 190.611 268.98 190.611 253H188.611ZM237.211 325.208C237.259 331.196 235.44 335.546 232.785 338.372C230.127 341.201 226.571 342.57 223.005 342.5C215.94 342.362 208.611 336.522 208.611 324.6H206.611C206.611 337.478 214.682 344.338 222.966 344.5C227.076 344.58 231.182 342.999 234.243 339.741C237.307 336.479 239.263 331.604 239.211 325.192L237.211 325.208ZM208.611 324.6V316.6H206.611V324.6H208.611ZM208.318 315.893L199.318 306.893L197.904 308.307L206.904 317.307L208.318 315.893ZM197.912 306.885L188.912 315.685L190.31 317.115L199.31 308.315L197.912 306.885ZM188.611 316.4V330.2H190.611V316.4H188.611ZM189.15 331.088L215.75 344.888L216.671 343.112L190.071 329.312L189.15 331.088ZM215.786 344.905C224.361 348.934 234.32 348.678 242.155 345.058C250.01 341.428 255.811 334.365 255.811 324.8H253.811C253.811 333.435 248.611 339.872 241.316 343.242C234.002 346.622 224.661 346.866 216.636 343.095L215.786 344.905ZM255.811 324.8C255.811 304.117 243.531 292.106 231.451 282.056C225.371 276.998 219.412 272.489 214.878 267.563C210.372 262.668 207.4 257.488 207.21 251.17L205.211 251.23C205.421 258.212 208.725 263.832 213.406 268.918C218.06 273.973 224.201 278.627 230.171 283.594C242.191 293.594 253.811 305.083 253.811 324.8H255.811ZM207.21 251.243C207.451 245.609 209.404 241.54 212.109 238.929C214.818 236.312 218.339 235.1 221.836 235.274C228.762 235.619 235.811 241.464 235.811 253.2H237.811C237.811 240.536 230.06 233.681 221.936 233.276C217.907 233.075 213.841 234.475 210.719 237.49C207.593 240.51 205.471 245.091 205.212 251.157L207.21 251.243ZM235.811 253.2V261.2H237.811V253.2H235.811ZM236.104 261.907L245.104 270.907L246.518 269.493L237.518 260.493L236.104 261.907ZM265.378 240L264.68 239.284L264.378 239.579V240H265.378ZM265.378 346H264.378V347H265.378V346ZM281.978 346V347H282.978V346H281.978ZM281.978 240H282.978V239.586L282.685 239.293L281.978 240ZM273.778 231.8L274.485 231.093L273.787 230.394L273.08 231.084L273.778 231.8ZM264.378 240V346H266.378V240H264.378ZM265.378 347H281.978V345H265.378V347ZM282.978 346V240H280.978V346H282.978ZM282.685 239.293L274.485 231.093L273.071 232.507L281.271 240.707L282.685 239.293ZM273.08 231.084L264.68 239.284L266.077 240.716L274.477 232.516L273.08 231.084ZM273.578 228.6C279.33 228.6 283.978 223.952 283.978 218.2H281.978C281.978 222.848 278.226 226.6 273.578 226.6V228.6ZM283.978 218.2C283.978 212.448 279.33 207.8 273.578 207.8V209.8C278.226 209.8 281.978 213.552 281.978 218.2H283.978ZM273.578 207.8C268.012 207.8 263.378 212.462 263.378 218.2H265.378C265.378 213.538 269.144 209.8 273.578 209.8V207.8ZM263.378 218.2C263.378 223.938 268.012 228.6 273.578 228.6V226.6C269.144 226.6 265.378 222.862 265.378 218.2H263.378ZM349.753 231.8V230.8H348.753V231.8H349.753ZM349.753 246.2L348.963 246.813L350.753 249.123V246.2H349.753ZM321.153 322.2L321.829 321.463L321.813 321.448L321.797 321.435L321.153 322.2ZM349.753 348.4H350.753V347.96L350.429 347.663L349.753 348.4ZM311.553 357.8H312.553V357.386L312.26 357.093L311.553 357.8ZM302.553 348.8L303.26 348.093L302.553 347.386L301.846 348.093L302.553 348.8ZM293.553 357.8L292.846 357.093L292.553 357.386V357.8H293.553ZM293.553 378.8H292.553V379.639L293.379 379.785L293.553 378.8ZM319.553 383.4L319.379 384.385L319.397 384.388L319.415 384.39L319.553 383.4ZM366.353 231.8H367.353V230.8H366.353V231.8ZM349.753 345.4L349.071 346.131L350.753 347.702V345.4H349.753ZM328.553 325.6L329.236 324.869L329.23 324.864L329.224 324.858L328.553 325.6ZM349.753 248H350.753V247.6L350.477 247.31L349.753 248ZM348.753 231.8V246.2H350.753V231.8H348.753ZM350.544 245.587C341.433 233.831 330.615 229.02 320.542 229.514C310.49 230.007 301.361 235.775 295.609 244.813C284.06 262.963 286.153 294.05 320.509 322.965L321.797 321.435C287.953 292.95 286.447 262.937 297.297 245.887C302.745 237.325 311.316 231.968 320.64 231.511C329.941 231.055 340.173 235.469 348.963 246.813L350.544 245.587ZM320.478 322.937L349.078 349.137L350.429 347.663L321.829 321.463L320.478 322.937ZM348.753 348.4V349.4H350.753V348.4H348.753ZM348.753 349.4C348.753 368.158 339.411 378.018 330.409 380.28C325.883 381.418 321.427 380.656 318.12 378.186C314.83 375.729 312.553 371.486 312.553 365.4H310.553C310.553 372.014 313.051 376.896 316.923 379.789C320.779 382.669 325.873 383.482 330.897 382.22C340.995 379.682 350.753 368.842 350.753 349.4H348.753ZM312.553 365.4V357.8H310.553V365.4H312.553ZM312.26 357.093L303.26 348.093L301.846 349.507L310.846 358.507L312.26 357.093ZM301.846 348.093L292.846 357.093L294.26 358.507L303.26 349.507L301.846 348.093ZM292.553 357.8V378.8H294.553V357.8H292.553ZM293.379 379.785L319.379 384.385L319.727 382.415L293.727 377.815L293.379 379.785ZM319.415 384.39C328.871 385.712 340.801 384.605 350.411 379.3C360.088 373.959 367.353 364.383 367.353 349H365.353C365.353 363.617 358.518 372.541 349.445 377.55C340.305 382.595 328.835 383.688 319.692 382.41L319.415 384.39ZM367.353 349V231.8H365.353V349H367.353ZM366.353 230.8H349.753V232.8H366.353V230.8ZM350.436 344.669L329.236 324.869L327.871 326.331L349.071 346.131L350.436 344.669ZM329.224 324.858C304.634 302.639 303.052 276.354 310.887 259.318C314.817 250.772 321.079 244.615 327.939 242.343C334.729 240.094 342.271 241.593 349.029 248.69L350.477 247.31C343.236 239.707 334.902 237.931 327.311 240.444C319.79 242.935 313.165 249.578 309.07 258.482C300.854 276.346 302.672 303.561 327.883 326.342L329.224 324.858ZM348.753 248V345.4H350.753V248H348.753ZM449.02 346.2L449.011 347.2L449.987 347.209L450.02 346.234L449.02 346.2ZM399.82 240.8L399.141 241.534L399.141 241.534L399.82 240.8ZM389.02 230.8L389.7 230.066L389.002 229.42L388.322 230.084L389.02 230.8ZM380.82 238.8L380.122 238.084L379.82 238.379V238.8H380.82ZM380.82 346H379.82V347H380.82V346ZM397.22 346V347H398.22V346H397.22ZM397.22 241.6L397.896 240.863L396.22 239.327V241.6H397.22ZM399.62 243.8L400.343 243.109L400.32 243.085L400.296 243.063L399.62 243.8ZM428.22 346L427.231 345.854L427.064 346.989L428.211 347L428.22 346ZM450.02 346.234C451.232 310.478 430.059 267.414 400.499 240.066L399.141 241.534C428.381 268.586 449.209 311.122 448.021 346.166L450.02 346.234ZM400.5 240.066L389.7 230.066L388.341 231.534L399.141 241.534L400.5 240.066ZM388.322 230.084L380.122 238.084L381.519 239.516L389.719 231.516L388.322 230.084ZM379.82 238.8V346H381.82V238.8H379.82ZM380.82 347H397.22V345H380.82V347ZM398.22 346V241.6H396.22V346H398.22ZM396.545 242.337L398.945 244.537L400.296 243.063L397.896 240.863L396.545 242.337ZM398.897 244.491C428.789 275.768 430.811 321.589 427.231 345.854L429.21 346.146C432.83 321.611 430.852 275.032 400.343 243.109L398.897 244.491ZM428.211 347L449.011 347.2L449.03 345.2L428.23 345L428.211 347ZM521.308 298.6L522.007 297.885L521.292 297.186L520.593 297.901L521.308 298.6ZM512.508 307.6L511.793 306.901L511.508 307.192V307.6H512.508ZM472.108 316.2L471.434 315.461L470.981 315.874L471.143 316.465L472.108 316.2ZM497.108 293.4L496.469 292.631L496.451 292.645L496.434 292.661L497.108 293.4ZM458.108 263L457.179 262.629L457.178 262.631L458.108 263ZM514.908 338L514.245 337.251L514.235 337.26L514.225 337.269L514.908 338ZM530.508 324.2L531.17 324.949L531.508 324.651V324.2H530.508ZM530.508 307.6H531.508V307.179L531.207 306.885L530.508 307.6ZM474.908 264.8L475.866 265.087L475.866 265.086L474.908 264.8ZM501.508 233L501.644 232.009L501.634 232.008L501.625 232.007L501.508 233ZM477.108 308.4L476.43 307.665L476.422 307.672L476.414 307.68L477.108 308.4ZM471.508 313.8L470.535 314.032L470.941 315.736L472.202 314.52L471.508 313.8ZM520.593 297.901L511.793 306.901L513.223 308.299L522.023 299.299L520.593 297.901ZM511.508 307.6V324.8H513.508V307.6H511.508ZM511.508 324.8C511.508 331.676 509.595 336.423 506.755 339.258C503.931 342.076 500.067 343.129 495.856 342.39C487.385 340.904 477.508 332.101 473.072 315.935L471.143 316.465C475.708 333.099 486.03 342.696 495.51 344.36C500.274 345.196 504.822 344.012 508.167 340.673C511.496 337.352 513.508 332.024 513.508 324.8H511.508ZM472.782 316.939L497.782 294.139L496.434 292.661L471.434 315.461L472.782 316.939ZM497.747 294.169C516.955 278.221 525.722 264.674 527.466 254.107C528.343 248.794 527.443 244.229 525.189 240.545C522.942 236.87 519.396 234.149 515.106 232.422C498.044 225.556 468.575 234.139 457.179 262.629L459.036 263.371C470.041 235.861 498.372 227.844 514.359 234.278C518.332 235.876 521.502 238.349 523.483 241.588C525.459 244.818 526.301 248.887 525.493 253.781C523.868 263.626 515.56 276.779 496.469 292.631L497.747 294.169ZM457.178 262.631C445.353 292.448 451.936 318.756 465.511 334.015C472.292 341.638 480.84 346.519 489.708 347.636C498.599 348.755 507.73 346.077 515.591 338.731L514.225 337.269C506.785 344.223 498.241 346.695 489.958 345.652C481.651 344.606 473.523 340.012 467.005 332.685C453.98 318.044 447.463 292.552 459.037 263.369L457.178 262.631ZM515.57 338.749L531.17 324.949L529.845 323.451L514.245 337.251L515.57 338.749ZM531.508 324.2V307.6H529.508V324.2H531.508ZM531.207 306.885L522.007 297.885L520.609 299.315L529.809 308.315L531.207 306.885ZM475.866 265.086C479.229 253.811 484.108 245.807 488.932 240.739C491.345 238.205 493.732 236.417 495.893 235.316C498.066 234.209 499.951 233.824 501.391 233.993L501.625 232.007C499.665 231.776 497.375 232.316 494.985 233.534C492.584 234.757 490.021 236.695 487.484 239.361C482.408 244.693 477.387 252.989 473.95 264.514L475.866 265.086ZM501.371 233.991C503.891 234.337 505.72 235.332 507.009 236.801C508.31 238.284 509.131 240.33 509.473 242.889C510.16 248.033 508.873 254.989 506.068 262.708C500.468 278.12 489.004 296.081 476.43 307.665L477.785 309.135C490.612 297.319 502.247 279.08 507.948 263.392C510.793 255.561 512.206 248.242 511.455 242.624C511.078 239.801 510.146 237.344 508.512 235.482C506.865 233.605 504.575 232.413 501.644 232.009L501.371 233.991ZM476.414 307.68L470.814 313.08L472.202 314.52L477.802 309.12L476.414 307.68ZM472.481 313.568C469.53 301.177 469.904 284.959 475.866 265.087L473.95 264.513C467.912 284.641 467.485 301.223 470.535 314.032L472.481 313.568ZM580.598 233L580.141 233.889L580.148 233.893L580.598 233ZM556.798 243.4H555.798L557.724 243.779L556.798 243.4ZM556.798 231.6H557.798V230.6H556.798V231.6ZM540.398 231.6V230.6H539.398V231.6H540.398ZM540.398 346H539.398V347H540.398V346ZM556.798 346V347H557.798V346H556.798ZM587.798 261.2H586.798V261.614L587.091 261.907L587.798 261.2ZM596.798 270.2L596.091 270.907L596.791 271.606L597.498 270.915L596.798 270.2ZM605.998 261.2L606.698 261.915L606.998 261.621V261.2H605.998ZM605.998 245.8H606.998V245.184L606.448 244.907L605.998 245.8ZM581.056 232.111C573.576 228.264 561.113 230.236 555.873 243.021L557.724 243.779C562.484 232.164 573.621 230.536 580.141 233.889L581.056 232.111ZM557.798 243.4V231.6H555.798V243.4H557.798ZM556.798 230.6H540.398V232.6H556.798V230.6ZM539.398 231.6V346H541.398V231.6H539.398ZM540.398 347H556.798V345H540.398V347ZM557.798 346V256.8H555.798V346H557.798ZM557.798 256.8C557.798 241.406 565.334 234.501 572.363 234.048C579.404 233.594 586.798 239.536 586.798 251.6H588.798C588.798 238.664 580.693 231.506 572.234 232.052C563.763 232.599 555.798 240.794 555.798 256.8H557.798ZM586.798 251.6V261.2H588.798V251.6H586.798ZM587.091 261.907L596.091 270.907L597.506 269.493L588.506 260.493L587.091 261.907ZM597.498 270.915L606.698 261.915L605.299 260.485L596.099 269.485L597.498 270.915ZM606.998 261.2V245.8H604.998V261.2H606.998ZM606.448 244.907L581.048 232.107L580.148 233.893L605.548 246.693L606.448 244.907ZM748.756 279.2H749.756V278.786L749.463 278.493L748.756 279.2ZM739.756 270.2L740.463 269.493L739.756 268.786L739.049 269.493L739.756 270.2ZM730.756 279.2L730.049 278.493L729.756 278.786V279.2H730.756ZM729.156 311.2L728.286 311.692L729.414 313.688L730.109 311.503L729.156 311.2ZM702.356 263.8L701.718 263.03L701.074 263.564L701.486 264.292L702.356 263.8ZM676.156 249.8L675.278 250.278L675.284 250.29L676.156 249.8ZM688.956 272.6L689.623 273.345L690.221 272.81L689.828 272.11L688.956 272.6ZM720.556 328.6L721.428 328.109L720.707 326.83L719.781 327.969L720.556 328.6ZM730.356 346L729.485 346.491L729.772 347H730.356V346ZM748.756 346V347H750.464L749.628 345.511L748.756 346ZM731.356 315L730.569 314.383L730.158 314.908L730.484 315.489L731.356 315ZM748.756 292.8L749.543 293.417L749.756 293.145V292.8H748.756ZM701.356 262L700.483 262.487L701.092 263.58L702.024 262.744L701.356 262ZM694.556 249.8L695.43 249.313L695.427 249.308L694.556 249.8ZM690.556 275.2L691.428 274.71L690.714 273.441L689.786 274.562L690.556 275.2ZM719.356 326.4L720.086 327.083L720.587 326.548L720.228 325.91L719.356 326.4ZM749.463 278.493L740.463 269.493L739.049 270.907L748.049 279.907L749.463 278.493ZM739.049 269.493L730.049 278.493L731.463 279.907L740.463 270.907L739.049 269.493ZM729.756 279.2V287.2H731.756V279.2H729.756ZM729.756 287.2C729.756 294.375 730.941 302.293 728.203 310.897L730.109 311.503C732.972 302.507 731.756 294.025 731.756 287.2H729.756ZM730.027 310.708L703.227 263.308L701.486 264.292L728.286 311.692L730.027 310.708ZM702.995 264.57C722.702 248.222 728.975 234.644 727.233 224.432C725.483 214.177 715.782 207.95 705.109 206.016C694.419 204.079 682.246 206.336 675.067 213.597C671.454 217.251 669.146 222.14 668.941 228.285C668.737 234.41 670.622 241.725 675.278 250.278L677.035 249.322C672.491 240.975 670.751 234.015 670.94 228.352C671.128 222.71 673.23 218.299 676.489 215.003C683.054 208.364 694.468 206.121 704.753 207.984C715.055 209.85 723.717 215.723 725.261 224.768C726.812 233.856 721.31 246.778 701.718 263.03L702.995 264.57ZM675.284 250.29L688.084 273.09L689.828 272.11L677.028 249.31L675.284 250.29ZM688.289 271.855C669.622 288.565 660.112 303.036 656.984 314.786C653.838 326.602 657.159 335.675 664.077 341.277C670.932 346.829 681.16 348.846 691.661 346.991C702.184 345.132 713.075 339.374 721.332 329.231L719.781 327.969C711.837 337.726 701.379 343.243 691.314 345.022C681.227 346.804 671.631 344.821 665.336 339.723C659.103 334.675 655.949 326.448 658.916 315.301C661.901 304.089 671.09 289.935 689.623 273.345L688.289 271.855ZM719.685 329.091L729.485 346.491L731.228 345.509L721.428 328.109L719.685 329.091ZM730.356 347H748.756V345H730.356V347ZM749.628 345.511L732.228 314.511L730.484 315.489L747.884 346.489L749.628 345.511ZM732.143 315.617L749.543 293.417L747.969 292.183L730.569 314.383L732.143 315.617ZM749.756 292.8V279.2H747.756V292.8H749.756ZM702.23 261.513L695.43 249.313L693.683 250.287L700.483 262.487L702.23 261.513ZM695.427 249.308C687.676 235.583 688.462 226.147 692.469 220.504C696.517 214.801 704.106 212.588 710.747 213.833C717.344 215.069 722.725 219.642 722.722 227.3C722.719 235.119 717.135 246.504 700.689 261.256L702.024 262.744C718.578 247.896 724.719 236.006 724.722 227.3C724.725 218.433 718.393 213.231 711.115 211.867C703.881 210.512 695.433 212.874 690.838 219.346C686.201 225.878 685.737 236.217 693.685 250.292L695.427 249.308ZM689.685 275.69L718.485 326.89L720.228 325.91L691.428 274.71L689.685 275.69ZM718.626 325.717C708.493 336.545 699.908 340.884 693.291 341.025C686.786 341.164 681.883 337.239 679.022 330.699C673.255 317.517 676.113 294.212 691.326 275.838L689.786 274.562C674.199 293.388 671.057 317.483 677.19 331.501C680.279 338.561 685.802 343.186 693.334 343.025C700.755 342.866 709.819 338.055 720.086 327.083L718.626 325.717ZM44.6 406.2L45.5694 405.955L45.3783 405.2H44.6V406.2ZM27.6 406.2V405.2H26.3092L26.6317 406.45L27.6 406.2ZM32.4 424.8L33.3692 425.046L33.4323 424.798L33.3683 424.55L32.4 424.8ZM1.6 546L0.630806 545.754L0.31409 547H1.6V546ZM21.2 546V547H22.3684L22.188 545.846L21.2 546ZM19.8 517V516H18.8163L18.8001 516.984L19.8 517ZM55.8 517L56.769 516.753L56.5769 516H55.8V517ZM63.2 546L62.2311 546.247L62.4231 547H63.2V546ZM80 546V547H81.2848L80.9694 545.755L80 546ZM19.8 514.6L18.8005 514.569L18.7683 515.6H19.8V514.6ZM27.6 453.8L28.5689 454.047L28.5697 454.044L27.6 453.8ZM33.6 430L34.5695 429.755L32.6303 429.756L33.6 430ZM55 514.6V515.6H56.2845L55.9695 514.355L55 514.6ZM44.6 405.2H27.6V407.2H44.6V405.2ZM26.6317 406.45L31.4317 425.05L33.3683 424.55L28.5683 405.95L26.6317 406.45ZM31.4308 424.554L0.630806 545.754L2.56919 546.246L33.3692 425.046L31.4308 424.554ZM1.6 547H21.2V545H1.6V547ZM22.188 545.846C21.2003 539.524 20.6004 529.187 20.7999 517.016L18.8001 516.984C18.5996 529.213 19.1997 539.676 20.212 546.154L22.188 545.846ZM19.8 518H55.8V516H19.8V518ZM54.8311 517.247L62.2311 546.247L64.169 545.753L56.769 516.753L54.8311 517.247ZM63.2 547H80V545H63.2V547ZM80.9694 545.755L45.5694 405.955L43.6306 406.445L79.0306 546.245L80.9694 545.755ZM20.7995 514.631C21.3981 495.476 23.7928 472.754 28.5689 454.047L26.6311 453.553C21.8072 472.446 19.4019 495.324 18.8005 514.569L20.7995 514.631ZM28.5697 454.044L34.5697 430.244L32.6303 429.756L26.6303 453.556L28.5697 454.044ZM32.6305 430.245L54.0305 514.845L55.9695 514.355L34.5695 429.755L32.6305 430.245ZM55 513.6H19.8V515.6H55V513.6ZM126.083 433L125.625 433.889L125.633 433.893L126.083 433ZM102.283 443.4H101.283L103.208 443.779L102.283 443.4ZM102.283 431.6H103.283V430.6H102.283V431.6ZM85.8828 431.6V430.6H84.8828V431.6H85.8828ZM85.8828 546H84.8828V547H85.8828V546ZM102.283 546V547H103.283V546H102.283ZM133.283 461.2H132.283V461.614L132.576 461.907L133.283 461.2ZM142.283 470.2L141.576 470.907L142.275 471.606L142.982 470.915L142.283 470.2ZM151.483 461.2L152.182 461.915L152.483 461.621V461.2H151.483ZM151.483 445.8H152.483V445.184L151.933 444.907L151.483 445.8ZM126.54 432.111C119.06 428.264 106.597 430.236 101.358 443.021L103.208 443.779C107.969 432.164 119.106 430.536 125.625 433.889L126.54 432.111ZM103.283 443.4V431.6H101.283V443.4H103.283ZM102.283 430.6H85.8828V432.6H102.283V430.6ZM84.8828 431.6V546H86.8828V431.6H84.8828ZM85.8828 547H102.283V545H85.8828V547ZM103.283 546V456.8H101.283V546H103.283ZM103.283 456.8C103.283 441.406 110.819 434.501 117.847 434.048C124.888 433.594 132.283 439.536 132.283 451.6H134.283C134.283 438.664 126.177 431.506 117.718 432.052C109.247 432.599 101.283 440.794 101.283 456.8H103.283ZM132.283 451.6V461.2H134.283V451.6H132.283ZM132.576 461.907L141.576 470.907L142.99 469.493L133.99 460.493L132.576 461.907ZM142.982 470.915L152.182 461.915L150.784 460.485L141.584 469.485L142.982 470.915ZM152.483 461.2V445.8H150.483V461.2H152.483ZM151.933 444.907L126.533 432.107L125.633 433.893L151.033 446.693L151.933 444.907ZM241.255 508.4H242.255V507.979L241.954 507.685L241.255 508.4ZM232.055 499.4L232.754 498.685L232.047 497.993L231.348 498.693L232.055 499.4ZM223.055 508.4L222.348 507.693L222.055 507.986V508.4H223.055ZM184.655 434.4V433.4H183.655V434.4H184.655ZM234.655 434.4V435.4H235.655V434.4H234.655ZM234.655 431.8H235.655V430.8H234.655V431.8ZM184.655 431.8H183.655V432.8H184.655V431.8ZM184.655 401.6H185.655V400.6H184.655V401.6ZM168.055 401.6V400.6H167.055V401.6H168.055ZM168.055 431.8V432.8H169.055V431.8H168.055ZM148.655 431.8V430.8H147.655V431.8H148.655ZM148.655 434.4H147.655V435.4H148.655V434.4ZM168.055 434.4H169.055V433.4H168.055V434.4ZM225.655 539L224.992 538.251L224.988 538.255L225.655 539ZM241.255 525.2L241.917 525.949L242.255 525.651V525.2H241.255ZM241.954 507.685L232.754 498.685L231.355 500.115L240.555 509.115L241.954 507.685ZM231.348 498.693L222.348 507.693L223.762 509.107L232.762 500.107L231.348 498.693ZM222.055 508.4V525.8H224.055V508.4H222.055ZM222.055 525.8C222.055 533.62 219.711 538.487 216.448 540.98C213.196 543.464 208.787 543.777 204.223 541.97C195.08 538.351 185.655 526.278 185.655 507.8H183.655C183.655 526.922 193.429 539.849 203.487 543.83C208.523 545.823 213.714 545.586 217.662 542.57C221.598 539.563 224.055 533.98 224.055 525.8H222.055ZM185.655 507.8V434.4H183.655V507.8H185.655ZM184.655 435.4H234.655V433.4H184.655V435.4ZM235.655 434.4V431.8H233.655V434.4H235.655ZM234.655 430.8H184.655V432.8H234.655V430.8ZM185.655 431.8V401.6H183.655V431.8H185.655ZM184.655 400.6H168.055V402.6H184.655V400.6ZM167.055 401.6V431.8H169.055V401.6H167.055ZM168.055 430.8H148.655V432.8H168.055V430.8ZM147.655 431.8V434.4H149.655V431.8H147.655ZM148.655 435.4H168.055V433.4H148.655V435.4ZM167.055 434.4V507.8H169.055V434.4H167.055ZM167.055 507.8C167.055 526.663 176.407 539.53 188.555 545.23C200.673 550.916 215.507 549.427 226.322 539.745L224.988 538.255C214.803 547.373 200.837 548.784 189.404 543.42C178.003 538.07 169.055 525.937 169.055 507.8H167.055ZM226.317 539.749L241.917 525.949L240.592 524.451L224.992 538.251L226.317 539.749ZM242.255 525.2V508.4H240.255V525.2H242.255ZM296.163 406.2V405.2H295.163V406.2H296.163ZM296.163 546H295.163V547H296.163V546ZM312.562 544.4H311.562V545.4H312.562V544.4ZM312.562 408L312.579 407L311.562 406.983V408H312.562ZM312.562 405.2H296.163V407.2H312.562V405.2ZM295.163 406.2V546H297.163V406.2H295.163ZM296.163 547H312.562V545H296.163V547ZM312.562 547C336.922 547 355.454 538.16 367.939 524.84C380.41 511.535 386.798 493.812 386.987 476.111C387.177 458.409 381.17 440.677 368.785 427.363C356.387 414.034 337.663 405.2 312.562 405.2V407.2C337.162 407.2 355.338 415.841 367.321 428.725C379.318 441.623 385.173 458.841 384.988 476.089C384.802 493.338 378.577 510.565 366.48 523.472C354.396 536.365 336.403 545 312.562 545V547ZM313.562 544.4V408H311.562V544.4H313.562ZM312.546 409C329.829 409.294 342.796 417.77 351.479 430.386C360.182 443.029 364.575 459.832 364.587 476.651C364.6 493.47 360.231 510.195 351.539 522.685C342.867 535.145 329.895 543.4 312.562 543.4V545.4C330.63 545.4 344.183 536.755 353.18 523.828C362.156 510.93 366.6 493.78 366.587 476.649C366.575 459.518 362.106 442.296 353.127 429.252C344.129 416.18 330.596 407.306 312.579 407L312.546 409ZM394.683 440L393.984 439.284L393.683 439.579V440H394.683ZM394.683 546H393.683V547H394.683V546ZM411.283 546V547H412.283V546H411.283ZM411.283 440H412.283V439.586L411.99 439.293L411.283 440ZM403.083 431.8L403.79 431.093L403.091 430.394L402.384 431.084L403.083 431.8ZM393.683 440V546H395.683V440H393.683ZM394.683 547H411.283V545H394.683V547ZM412.283 546V440H410.283V546H412.283ZM411.99 439.293L403.79 431.093L402.376 432.507L410.576 440.707L411.99 439.293ZM402.384 431.084L393.984 439.284L395.381 440.716L403.781 432.516L402.384 431.084ZM402.883 428.6C408.635 428.6 413.283 423.952 413.283 418.2H411.283C411.283 422.848 407.531 426.6 402.883 426.6V428.6ZM413.283 418.2C413.283 412.448 408.635 407.8 402.883 407.8V409.8C407.531 409.8 411.283 413.552 411.283 418.2H413.283ZM402.883 407.8C397.317 407.8 392.683 412.462 392.683 418.2H394.683C394.683 413.538 398.449 409.8 402.883 409.8V407.8ZM392.683 418.2C392.683 423.938 397.317 428.6 402.883 428.6V426.6C398.449 426.6 394.683 422.862 394.683 418.2H392.683ZM464.481 433L464.024 433.889L464.031 433.893L464.481 433ZM440.681 443.4H439.681L441.607 443.779L440.681 443.4ZM440.681 431.6H441.681V430.6H440.681V431.6ZM424.281 431.6V430.6H423.281V431.6H424.281ZM424.281 546H423.281V547H424.281V546ZM440.681 546V547H441.681V546H440.681ZM471.681 461.2H470.681V461.614L470.974 461.907L471.681 461.2ZM480.681 470.2L479.974 470.907L480.674 471.606L481.381 470.915L480.681 470.2ZM489.881 461.2L490.581 461.915L490.881 461.621V461.2H489.881ZM489.881 445.8H490.881V445.184L490.331 444.907L489.881 445.8ZM464.939 432.111C457.459 428.264 444.995 430.236 439.756 443.021L441.607 443.779C446.367 432.164 457.504 430.536 464.024 433.889L464.939 432.111ZM441.681 443.4V431.6H439.681V443.4H441.681ZM440.681 430.6H424.281V432.6H440.681V430.6ZM423.281 431.6V546H425.281V431.6H423.281ZM424.281 547H440.681V545H424.281V547ZM441.681 546V456.8H439.681V546H441.681ZM441.681 456.8C441.681 441.406 449.217 434.501 456.246 434.048C463.287 433.594 470.681 439.536 470.681 451.6H472.681C472.681 438.664 464.576 431.506 456.117 432.052C447.645 432.599 439.681 440.794 439.681 456.8H441.681ZM470.681 451.6V461.2H472.681V451.6H470.681ZM470.974 461.907L479.974 470.907L481.388 469.493L472.388 460.493L470.974 461.907ZM481.381 470.915L490.581 461.915L489.182 460.485L479.982 469.485L481.381 470.915ZM490.881 461.2V445.8H488.881V461.2H490.881ZM490.331 444.907L464.931 432.107L464.031 433.893L489.431 446.693L490.331 444.907ZM561.253 498.6L561.952 497.885L561.237 497.186L560.538 497.901L561.253 498.6ZM552.453 507.6L551.738 506.901L551.453 507.192V507.6H552.453ZM512.053 516.2L511.379 515.461L510.927 515.874L511.089 516.465L512.053 516.2ZM537.053 493.4L536.414 492.631L536.396 492.645L536.379 492.661L537.053 493.4ZM498.053 463L497.125 462.629L497.124 462.631L498.053 463ZM554.853 538L554.191 537.251L554.18 537.26L554.17 537.269L554.853 538ZM570.453 524.2L571.116 524.949L571.453 524.651V524.2H570.453ZM570.453 507.6H571.453V507.179L571.152 506.885L570.453 507.6ZM514.853 464.8L515.811 465.087L515.811 465.086L514.853 464.8ZM541.453 433L541.589 432.009L541.58 432.008L541.57 432.007L541.453 433ZM517.053 508.4L516.376 507.665L516.367 507.672L516.359 507.68L517.053 508.4ZM511.453 513.8L510.48 514.032L510.886 515.736L512.147 514.52L511.453 513.8ZM560.538 497.901L551.738 506.901L553.168 508.299L561.968 499.299L560.538 497.901ZM551.453 507.6V524.8H553.453V507.6H551.453ZM551.453 524.8C551.453 531.676 549.54 536.423 546.7 539.258C543.876 542.076 540.012 543.129 535.801 542.39C527.331 540.904 517.453 532.101 513.017 515.935L511.089 516.465C515.653 533.099 525.975 542.696 535.455 544.36C540.219 545.196 544.768 544.012 548.113 540.673C551.441 537.352 553.453 532.024 553.453 524.8H551.453ZM512.727 516.939L537.727 494.139L536.379 492.661L511.379 515.461L512.727 516.939ZM537.692 494.169C556.9 478.221 565.668 464.674 567.412 454.107C568.288 448.794 567.388 444.229 565.135 440.545C562.887 436.87 559.341 434.149 555.051 432.422C537.989 425.556 508.52 434.139 497.125 462.629L498.982 463.371C509.986 435.861 538.317 427.844 554.305 434.278C558.278 435.876 561.447 438.349 563.429 441.588C565.404 444.818 566.246 448.887 565.438 453.781C563.814 463.626 555.506 476.779 536.414 492.631L537.692 494.169ZM497.124 462.631C485.298 492.448 491.881 518.756 505.456 534.015C512.238 541.638 520.785 546.519 529.653 547.636C538.545 548.755 547.676 546.077 555.536 538.731L554.17 537.269C546.731 544.223 538.187 546.695 529.903 545.652C521.596 544.606 513.469 540.012 506.95 532.685C493.925 518.044 487.408 492.552 498.983 463.369L497.124 462.631ZM555.516 538.749L571.116 524.949L569.791 523.451L554.191 537.251L555.516 538.749ZM571.453 524.2V507.6H569.453V524.2H571.453ZM571.152 506.885L561.952 497.885L560.554 499.315L569.754 508.315L571.152 506.885ZM515.811 465.086C519.174 453.811 524.053 445.807 528.877 440.739C531.29 438.205 533.677 436.418 535.838 435.316C538.011 434.209 539.896 433.824 541.336 433.993L541.57 432.007C539.61 431.776 537.32 432.316 534.93 433.534C532.529 434.758 529.966 436.695 527.429 439.361C522.353 444.693 517.332 452.989 513.895 464.514L515.811 465.086ZM541.317 433.991C543.836 434.337 545.665 435.332 546.954 436.801C548.255 438.284 549.076 440.33 549.418 442.889C550.105 448.033 548.818 454.989 546.013 462.708C540.414 478.12 528.949 496.081 516.376 507.665L517.731 509.135C530.557 497.319 542.193 479.08 547.893 463.392C550.738 455.561 552.151 448.242 551.401 442.624C551.023 439.801 550.092 437.344 548.457 435.482C546.81 433.605 544.52 432.413 541.589 432.009L541.317 433.991ZM516.359 507.68L510.759 513.08L512.147 514.52L517.747 509.12L516.359 507.68ZM512.426 513.568C509.476 501.177 509.849 484.959 515.811 465.087L513.895 464.513C507.857 484.641 507.431 501.223 510.48 514.032L512.426 513.568ZM654.544 531.2L655.251 530.493L654.331 529.573L653.679 530.698L654.544 531.2ZM634.144 449H633.144V449.414L633.437 449.707L634.144 449ZM642.944 457.8L642.237 458.507L642.928 459.199L643.635 458.523L642.944 457.8ZM652.144 449L652.835 449.723L653.144 449.427V449H652.144ZM652.144 431.8H653.144V430.8H652.144V431.8ZM656.344 533L657.174 533.557L657.632 532.874L657.051 532.293L656.344 533ZM653.679 530.698C647.145 541.967 632.683 544.06 619.558 536.703C606.491 529.378 594.944 512.69 594.944 486.8H592.944C592.944 513.31 604.797 530.721 618.58 538.447C632.304 546.14 648.143 544.233 655.409 531.702L653.679 530.698ZM594.944 486.8C594.944 469.465 599.302 456.567 605.024 448.032C610.777 439.453 617.809 435.4 623.144 435.4V433.4C616.879 433.4 609.311 438.047 603.363 446.918C597.386 455.833 592.944 469.135 592.944 486.8H594.944ZM623.144 435.4C628.181 435.4 633.144 440.715 633.144 449H635.144C635.144 440.085 629.707 433.4 623.144 433.4V435.4ZM633.437 449.707L642.237 458.507L643.651 457.093L634.851 448.293L633.437 449.707ZM643.635 458.523L652.835 449.723L651.453 448.277L642.253 457.077L643.635 458.523ZM653.144 449V431.8H651.144V449H653.144ZM652.144 430.8H625.544V432.8H652.144V430.8ZM625.544 430.8C619.032 430.8 606.368 433.718 595.314 442.103C584.208 450.528 574.744 464.465 574.744 486.4H576.744C576.744 465.135 585.879 451.772 596.523 443.697C607.219 435.582 619.456 432.8 625.544 432.8V430.8ZM574.744 486.4C574.744 517.075 590.209 536.399 608.294 544.292C626.3 552.15 647.029 548.671 657.174 533.557L655.513 532.443C646.058 546.529 626.488 550.05 609.094 542.458C591.778 534.901 576.744 516.325 576.744 486.4H574.744ZM657.051 532.293L655.251 530.493L653.837 531.907L655.637 533.707L657.051 532.293ZM746.263 508.4H747.263V507.979L746.962 507.685L746.263 508.4ZM737.062 499.4L737.762 498.685L737.055 497.993L736.355 498.693L737.062 499.4ZM728.062 508.4L727.355 507.693L727.062 507.986V508.4H728.062ZM689.662 434.4V433.4H688.662V434.4H689.662ZM739.663 434.4V435.4H740.663V434.4H739.663ZM739.663 431.8H740.663V430.8H739.663V431.8ZM689.662 431.8H688.662V432.8H689.662V431.8ZM689.662 401.6H690.662V400.6H689.662V401.6ZM673.062 401.6V400.6H672.062V401.6H673.062ZM673.062 431.8V432.8H674.062V431.8H673.062ZM653.662 431.8V430.8H652.662V431.8H653.662ZM653.662 434.4H652.662V435.4H653.662V434.4ZM673.062 434.4H674.062V433.4H673.062V434.4ZM730.662 539L730 538.251L729.995 538.255L730.662 539ZM746.263 525.2L746.925 525.949L747.263 525.651V525.2H746.263ZM746.962 507.685L737.762 498.685L736.363 500.115L745.563 509.115L746.962 507.685ZM736.355 498.693L727.355 507.693L728.77 509.107L737.77 500.107L736.355 498.693ZM727.062 508.4V525.8H729.062V508.4H727.062ZM727.062 525.8C727.062 533.62 724.719 538.487 721.455 540.98C718.203 543.464 713.794 543.777 709.231 541.97C700.088 538.351 690.662 526.278 690.662 507.8H688.662C688.662 526.922 698.437 539.849 708.494 543.83C713.531 545.823 718.721 545.586 722.67 542.57C726.606 539.563 729.062 533.98 729.062 525.8H727.062ZM690.662 507.8V434.4H688.662V507.8H690.662ZM689.662 435.4H739.663V433.4H689.662V435.4ZM740.663 434.4V431.8H738.663V434.4H740.663ZM739.663 430.8H689.662V432.8H739.663V430.8ZM690.662 431.8V401.6H688.662V431.8H690.662ZM689.662 400.6H673.062V402.6H689.662V400.6ZM672.062 401.6V431.8H674.062V401.6H672.062ZM673.062 430.8H653.662V432.8H673.062V430.8ZM652.662 431.8V434.4H654.662V431.8H652.662ZM653.662 435.4H673.062V433.4H653.662V435.4ZM672.062 434.4V507.8H674.062V434.4H672.062ZM672.062 507.8C672.062 526.663 681.414 539.53 693.563 545.23C705.681 550.916 720.514 549.427 731.33 539.745L729.995 538.255C719.811 547.373 705.844 548.784 694.412 543.42C683.011 538.07 674.062 525.937 674.062 507.8H672.062ZM731.325 539.749L746.925 525.949L745.6 524.451L730 538.251L731.325 539.749ZM747.263 525.2V508.4H745.263V525.2H747.263ZM795.584 430.8C769.43 430.8 748.584 457.474 748.584 489.6H750.584C750.584 458.126 770.939 432.8 795.584 432.8V430.8ZM748.584 489.6C748.584 521.928 769.432 548.4 795.584 548.4V546.4C770.937 546.4 750.584 521.272 750.584 489.6H748.584ZM795.584 548.4C821.737 548.4 842.584 521.928 842.584 489.6H840.584C840.584 521.272 820.232 546.4 795.584 546.4V548.4ZM842.584 489.6C842.584 457.474 821.739 430.8 795.584 430.8V432.8C820.23 432.8 840.584 458.126 840.584 489.6H842.584ZM795.584 544.2C787.665 544.2 781.279 538.44 776.821 528.564C772.374 518.711 769.984 505.014 769.984 489.8H767.984C767.984 505.186 770.395 519.189 774.998 529.386C779.59 539.56 786.504 546.2 795.584 546.2V544.2ZM769.984 489.8C769.984 474.586 772.374 460.889 776.821 451.036C781.279 441.16 787.665 435.4 795.584 435.4V433.4C786.504 433.4 779.59 440.04 774.998 450.214C770.395 460.411 767.984 474.414 767.984 489.8H769.984ZM795.584 435.4C803.489 435.4 809.628 441.141 813.84 451.017C818.042 460.872 820.184 474.573 820.184 489.8H822.184C822.184 474.427 820.027 460.428 815.679 450.233C811.341 440.059 804.679 433.4 795.584 433.4V435.4ZM820.184 489.8C820.184 505.027 818.042 518.728 813.84 528.583C809.628 538.459 803.489 544.2 795.584 544.2V546.2C804.679 546.2 811.341 539.541 815.679 529.367C820.027 519.172 822.184 505.173 822.184 489.8H820.184ZM891.552 433L891.094 433.889L891.102 433.893L891.552 433ZM867.752 443.4H866.752L868.677 443.779L867.752 443.4ZM867.752 431.6H868.752V430.6H867.752V431.6ZM851.352 431.6V430.6H850.352V431.6H851.352ZM851.352 546H850.352V547H851.352V546ZM867.752 546V547H868.752V546H867.752ZM898.752 461.2H897.752V461.614L898.044 461.907L898.752 461.2ZM907.752 470.2L907.044 470.907L907.744 471.606L908.451 470.915L907.752 470.2ZM916.952 461.2L917.651 461.915L917.952 461.621V461.2H916.952ZM916.952 445.8H917.952V445.184L917.402 444.907L916.952 445.8ZM892.009 432.111C884.529 428.264 872.066 430.236 866.826 443.021L868.677 443.779C873.437 432.164 884.574 430.536 891.094 433.889L892.009 432.111ZM868.752 443.4V431.6H866.752V443.4H868.752ZM867.752 430.6H851.352V432.6H867.752V430.6ZM850.352 431.6V546H852.352V431.6H850.352ZM851.352 547H867.752V545H851.352V547ZM868.752 546V456.8H866.752V546H868.752ZM868.752 456.8C868.752 441.406 876.287 434.501 883.316 434.048C890.357 433.594 897.752 439.536 897.752 451.6H899.752C899.752 438.664 891.646 431.506 883.187 432.052C874.716 432.599 866.752 440.794 866.752 456.8H868.752ZM897.752 451.6V461.2H899.752V451.6H897.752ZM898.044 461.907L907.044 470.907L908.459 469.493L899.459 460.493L898.044 461.907ZM908.451 470.915L917.651 461.915L916.252 460.485L907.052 469.485L908.451 470.915ZM917.952 461.2V445.8H915.952V461.2H917.952ZM917.402 444.907L892.002 432.107L891.102 433.893L916.502 446.693L917.402 444.907Z" fill="#AEB0AF"/>
</svg>
