<svg width="130" height="37" viewBox="0 0 130 37" fill="none" xmlns="http://www.w3.org/2000/svg">
<path fill-rule="evenodd" clip-rule="evenodd" d="M35 2.90094e-06L0 9.53674e-07L-1.94727e-06 35L35 35L35 2.90094e-06ZM11.6461 6.03873L14.912 6.03873L14.912 15.7746L20.2729 15.7746L26.4349 15.7747C28.4767 15.7747 30.132 17.4299 30.132 19.4718L30.132 28.9613L20.2729 28.9613L20.2729 21.5834C20.2729 18.5691 17.8945 16.1103 14.912 15.9813L14.912 17.5L14.912 23.2306L14.912 28.9613L11.6461 28.9613L4.6831 28.9613L4.6831 17.5L4.6831 11.7694L4.6831 6.03873L11.6461 6.03873ZM16.1444 6.03873L30.1937 6.03874L30.1937 7.51761C30.1937 11.3972 27.0486 14.5423 23.169 14.5423C19.2894 14.5423 16.1444 11.3972 16.1444 7.51761L16.1444 6.03873Z" fill="#91F14A"/>
<path d="M51.411 17.002L45.7144 8.67888L50.7544 3.72761L48.6425 3.72761L42.3603 9.85014L42.3603 3.72761L40.6921 3.72761L40.6921 17.002L42.3603 17.002L42.3603 11.962L44.4721 9.90338L49.2992 17.002L51.411 17.002Z" fill="#E5E3DE"/>
<path d="M53.0814 5.14733C53.7202 5.14733 54.1817 4.70367 54.1817 4.06479C54.1817 3.42592 53.7202 3 53.0814 3C52.4425 3 51.9633 3.42592 51.9633 4.06479C51.9633 4.70367 52.4425 5.14733 53.0814 5.14733ZM52.2828 6.83324L52.2828 17.002L53.88 17.002L53.88 6.83324L52.2828 6.83324Z" fill="#E5E3DE"/>
<path d="M63.0871 13.7011C62.8209 14.9611 61.7561 15.813 60.3009 15.813C58.2955 15.813 56.9823 14.198 56.9823 11.962L56.9823 11.8555L64.418 11.8555C64.773 8.78536 62.8918 6.62029 60.1234 6.62029C57.3727 6.62029 55.4561 8.85634 55.4561 11.9087C55.4561 14.9611 57.4082 17.2149 60.3009 17.2149C62.5014 17.2149 64.2228 15.9549 64.6842 13.7011L63.0871 13.7011ZM60.1589 7.93353C61.7206 7.93353 62.6789 8.94508 62.8564 10.4713L57.1242 10.4713C57.5147 8.87409 58.7037 7.93353 60.1589 7.93353Z" fill="#E5E3DE"/>
<path d="M66.0966 3.72761L66.0966 17.002L67.6938 17.002L67.6938 3.72761L66.0966 3.72761Z" fill="#E5E3DE"/>
<path d="M46.4775 19.5358C42.7152 19.5358 40 22.4107 40 26.3682C40 30.3434 42.733 33.2361 46.4775 33.2361C49.3169 33.2361 51.6772 31.3017 52.2273 28.4268L50.5592 28.4268C50.0623 30.3789 48.4473 31.7276 46.4775 31.7276C43.6735 31.7276 41.6859 29.5093 41.6859 26.3682C41.6859 23.2448 43.6735 21.0442 46.371 21.0442C48.1811 21.0442 49.7251 22.2332 50.1687 23.9369L51.8369 23.9369C51.3223 21.2039 49.1039 19.5358 46.4775 19.5358Z" fill="#E5E3DE"/>
<path d="M60.4954 28.5865C60.4954 30.3789 59.5193 31.7986 57.8689 31.7986C56.3427 31.7986 55.3844 30.787 55.3844 29.1544L55.3844 22.8544L53.7872 22.8544L53.7872 29.4561C53.7872 31.7986 55.2424 33.2361 57.443 33.2361C58.8627 33.2361 59.9807 32.473 60.5664 31.071L60.7438 33.0231L62.0926 33.0231L62.0926 22.8544L60.4954 22.8544L60.4954 28.5865Z" fill="#E5E3DE"/>
<path d="M75.5077 22.6414C74.0702 22.6414 72.9344 23.4045 72.2778 24.913C71.7986 23.4755 70.5919 22.6414 68.9592 22.6414C67.5572 22.6414 66.4747 23.4045 65.8891 24.8065L65.7116 22.8544L64.3629 22.8544L64.3629 33.0231L65.96 33.0231L65.96 27.291C65.96 25.4986 66.9184 24.0789 68.5155 24.0789C70.0062 24.0789 70.9291 25.0904 70.9291 26.7231L70.9291 33.0231L72.5085 33.0231L72.5085 27.291C72.5085 25.4986 73.4846 24.0789 75.0817 24.0789C76.5724 24.0789 77.4775 25.0904 77.4775 26.7231L77.4775 33.0231L79.0747 33.0231L79.0747 26.4214C79.0747 24.0789 77.6727 22.6414 75.5077 22.6414Z" fill="#E5E3DE"/>
<path d="M92.3536 22.6414C90.9162 22.6414 89.7804 23.4045 89.1238 24.913C88.6446 23.4755 87.4379 22.6414 85.8052 22.6414C84.4032 22.6414 83.3207 23.4045 82.735 24.8065L82.5576 22.8544L81.2088 22.8544L81.2088 33.0231L82.806 33.0231L82.806 27.291C82.806 25.4986 83.7643 24.0789 85.3615 24.0789C86.8522 24.0789 87.775 25.0904 87.775 26.7231L87.775 33.0231L89.3545 33.0231L89.3545 27.291C89.3545 25.4986 90.3305 24.0789 91.9277 24.0789C93.4184 24.0789 94.3235 25.0904 94.3235 26.7231L94.3235 33.0231L95.9207 33.0231L95.9207 26.4214C95.9207 24.0789 94.5187 22.6414 92.3536 22.6414Z" fill="#E5E3DE"/>
<path d="M98.8534 21.1685C99.4923 21.1685 99.9537 20.7248 99.9537 20.0859C99.9537 19.4471 99.4923 19.0211 98.8534 19.0211C98.2145 19.0211 97.7354 19.4471 97.7354 20.0859C97.7354 20.7248 98.2145 21.1685 98.8534 21.1685ZM98.0548 22.8544L98.0548 33.0231L99.652 33.0231L99.652 22.8544L98.0548 22.8544Z" fill="#E5E3DE"/>
<path d="M106.57 22.6414C105.15 22.6414 104.032 23.4045 103.446 24.7887L103.269 22.8544L101.92 22.8544L101.92 33.0231L103.517 33.0231L103.517 27.291C103.517 25.4986 104.493 24.0966 106.126 24.0966C107.652 24.0966 108.628 25.0904 108.628 26.7231L108.628 33.0231L110.226 33.0231L110.226 26.4214C110.226 24.0789 108.77 22.6414 106.57 22.6414Z" fill="#E5E3DE"/>
<path d="M121.334 24.2386L121.138 22.8544L120.766 22.8544C119.878 22.8544 119.399 23.2093 119.222 24.2918C118.565 23.2803 117.376 22.6414 115.921 22.6414C113.667 22.6414 112.052 24.1321 112.052 26.173C112.052 27.1313 112.425 27.9831 113.046 28.6042C112.567 28.9769 112.07 29.4028 112.07 30.2369C112.07 30.8225 112.283 31.3549 112.727 31.7276C111.857 32.2423 111.413 32.8989 111.413 33.8217C111.413 35.6141 112.798 36.3949 115.176 36.3949L117.057 36.3949C119.169 36.3949 120.677 35.6318 120.677 33.7507C120.677 32.1358 119.665 31.1775 117.429 31.1775L115.087 31.1775C114.058 31.1775 113.49 30.787 113.49 30.1127C113.49 29.7578 113.703 29.5093 113.933 29.2431C114.501 29.5448 115.176 29.7045 115.921 29.7045C118.157 29.7045 119.754 28.1961 119.754 26.173L119.754 25.9245C119.878 24.558 120.216 24.2386 120.837 24.2386L121.334 24.2386ZM115.921 28.48C114.519 28.48 113.525 27.5217 113.525 26.173C113.525 24.8242 114.519 23.8659 115.921 23.8659C117.305 23.8659 118.281 24.8242 118.281 26.173C118.281 27.5217 117.305 28.48 115.921 28.48ZM117.323 32.4197C118.441 32.4197 119.08 32.8989 119.08 33.733C119.08 34.78 118.033 35.1527 116.95 35.1527L115.513 35.1527C114.022 35.1527 113.011 34.8332 113.011 33.6797C113.011 33.0586 113.277 32.6504 113.862 32.2955C114.2 32.3665 114.572 32.4197 115.016 32.4197L117.323 32.4197Z" fill="#E5E3DE"/>
<path d="M125.676 33.2361C127.895 33.2361 129.456 32.0116 129.456 30.2369C129.456 25.9778 123.298 27.9476 123.298 25.3389C123.298 24.4516 124.097 23.8659 125.321 23.8659C126.635 23.8659 127.646 24.6645 127.877 25.7293L129.439 25.7293C129.19 23.8837 127.451 22.6414 125.375 22.6414C123.209 22.6414 121.754 23.7949 121.754 25.4809C121.754 29.4561 127.895 27.3797 127.895 30.3789C127.895 31.3549 127.025 32.0116 125.729 32.0116C124.434 32.0116 123.085 31.1065 122.926 29.7045L121.382 29.7045C121.612 31.8518 123.529 33.2361 125.676 33.2361Z" fill="#E5E3DE"/>
</svg>
