<svg width="26" height="14" viewBox="0 0 26 14" fill="none" xmlns="http://www.w3.org/2000/svg">
<path d="M4.976 0.815999L2.608 10.096L2.128 8.192C1.488 5.664 1.376 2.176 1.616 0.815999H0.048L2.512 10.512L2.128 12H3.488L6.32 0.815999H4.976ZM7.079 3.52V12H8.407V3.52L7.751 2.864L7.079 3.52ZM7.735 2.528C8.151 2.528 8.487 2.192 8.487 1.776C8.487 1.36 8.151 1.024 7.735 1.024C7.335 1.024 6.999 1.36 6.999 1.776C6.999 2.192 7.335 2.528 7.735 2.528ZM15.029 8.208L14.325 8.928V10.304C14.325 12.56 11.813 12.24 11.093 9.616L13.093 7.792C19.221 2.704 11.765 0.879999 9.973 5.36C8.101 10.08 12.069 13.648 14.517 11.36L15.765 10.256V8.928L15.029 8.208ZM11.317 5.504C11.861 3.68 12.901 2.896 13.445 2.96C15.189 3.2 13.525 7.12 11.493 8.992L11.045 9.424C10.805 8.416 10.837 7.104 11.317 5.504ZM24.6843 2.864V10C24.6843 12.736 22.0763 12.048 22.0763 10.048V2.864H20.7483V9.632V9.648V10.096C20.6843 12.496 18.2682 12.384 18.2682 10.416V3.552L17.5483 2.848L16.8283 3.552V10.864L18.8443 11.904C19.4363 12.208 20.4603 12.032 20.8123 10.912L22.7643 11.904C23.3243 12.192 24.2683 12.032 24.6843 11.072V11.968H25.9963V2.864H24.6843Z" fill="black"/>
</svg>
